<?xml version="1.0" encoding="utf-8"?>
<!-- Generator: Adobe Illustrator 19.0.0, SVG Export Plug-In . SVG Version: 6.00 Build 0)  -->
<svg version="1.1" id="Layer_1" xmlns="http://www.w3.org/2000/svg" xmlns:xlink="http://www.w3.org/1999/xlink" x="0px" y="0px"
	 viewBox="0 0 309.6 309.6" style="enable-background:new 0 0 309.6 309.6;" xml:space="preserve">
<style type="text/css">
	.st0{fill:#DFDEDE;}
	.st1{fill:#1E1E1E;}
</style>
<g id="XMLID_29_">
	<circle id="XMLID_5806_" class="st0" cx="154.8" cy="154.8" r="134.6"/>
	<path id="XMLID_5732_" class="st1" d="M154.8,300c-0.5,0-1.1,0-1.6,0l0.1-4.8c1.5,0,3.1,0,4.7,0l0.1,4.8
		C156.9,300,155.9,300,154.8,300z M145.5,299.7c-1.6-0.1-3.2-0.2-4.8-0.4l0.5-4.7c1.5,0.1,3.1,0.3,4.6,0.4L145.5,299.7z
		 M165.7,299.6l-0.3-4.7c1.5-0.1,3.1-0.3,4.6-0.4l0.5,4.7C168.9,299.3,167.3,299.5,165.7,299.6z M133.1,298.4
		c-1.6-0.2-3.2-0.5-4.7-0.8l0.9-4.7c1.5,0.3,3.1,0.5,4.6,0.8L133.1,298.4z M178.1,298.1l-0.8-4.7c1.5-0.2,3.1-0.5,4.6-0.8l0.9,4.7
		C181.2,297.6,179.7,297.9,178.1,298.1z M120.8,296c-1.6-0.4-3.1-0.8-4.7-1.2l1.3-4.6c1.5,0.4,3,0.8,4.5,1.2L120.8,296z
		 M190.3,295.6l-1.2-4.6c1.5-0.4,3-0.8,4.5-1.2l1.3,4.6C193.4,294.8,191.9,295.2,190.3,295.6z M108.8,292.5c-1.5-0.5-3.1-1-4.5-1.6
		l1.7-4.5c1.4,0.5,2.9,1.1,4.4,1.5L108.8,292.5z M202.3,292l-1.6-4.5c1.5-0.5,2.9-1,4.4-1.6l1.7,4.4
		C205.3,291,203.8,291.5,202.3,292z M97.1,288.1c-1.5-0.6-2.9-1.3-4.4-2l2-4.3c1.4,0.7,2.8,1.3,4.2,1.9L97.1,288.1z M213.9,287.4
		l-1.9-4.3c1.4-0.6,2.8-1.3,4.2-2l2.1,4.3C216.8,286.1,215.3,286.8,213.9,287.4z M85.9,282.6c-1.4-0.8-2.8-1.6-4.2-2.4l2.4-4.1
		c1.3,0.8,2.7,1.5,4.1,2.3L85.9,282.6z M225,281.9l-2.3-4.2c1.3-0.7,2.7-1.5,4-2.3l2.4,4.1C227.8,280.3,226.4,281.1,225,281.9z
		 M75.1,276.2c-1.3-0.9-2.7-1.8-4-2.7l2.7-3.9c1.3,0.9,2.6,1.8,3.8,2.6L75.1,276.2z M235.7,275.4l-2.7-3.9c1.3-0.9,2.6-1.8,3.8-2.7
		l2.8,3.9C238.3,273.6,237,274.5,235.7,275.4z M65,268.9c-1.3-1-2.5-2-3.7-3l3.1-3.6c1.2,1,2.4,2,3.6,2.9L65,268.9z M245.7,268
		l-3-3.7c1.2-1,2.4-2,3.6-3l3.1,3.6C248.2,265.9,247,267,245.7,268z M55.5,260.7c-1.2-1.1-2.3-2.2-3.5-3.3l3.4-3.4
		c1.1,1.1,2.2,2.2,3.3,3.2L55.5,260.7z M255.1,259.7l-3.3-3.4c1.1-1.1,2.2-2.2,3.3-3.3l3.4,3.3C257.4,257.5,256.3,258.6,255.1,259.7
		z M46.8,251.8c-1.1-1.2-2.1-2.4-3.2-3.6l3.6-3.1c1,1.2,2,2.4,3,3.5L46.8,251.8z M263.8,250.7l-3.6-3.1c1-1.2,2-2.3,3-3.5l3.7,3
		C265.9,248.3,264.8,249.5,263.8,250.7z M38.9,242.2c-1-1.3-1.9-2.6-2.8-3.9l3.9-2.7c0.9,1.3,1.8,2.5,2.7,3.8L38.9,242.2z
		 M271.6,241l-3.8-2.8c0.9-1.2,1.8-2.5,2.7-3.8l3.9,2.7C273.5,238.4,272.6,239.7,271.6,241z M31.8,231.9c-0.8-1.3-1.7-2.7-2.5-4.1
		l4.1-2.4c0.8,1.3,1.6,2.7,2.4,4L31.8,231.9z M278.6,230.6l-4.1-2.5c0.8-1.3,1.6-2.7,2.4-4l4.1,2.4
		C280.3,227.9,279.4,229.3,278.6,230.6z M25.6,221.1c-0.7-1.4-1.4-2.9-2.1-4.3l4.3-2c0.7,1.4,1.3,2.8,2.1,4.2L25.6,221.1z
		 M284.7,219.7l-4.3-2.1c0.7-1.4,1.4-2.8,2-4.2l4.3,2C286.1,216.8,285.4,218.3,284.7,219.7z M20.4,209.8c-0.6-1.5-1.2-3-1.7-4.5
		l4.5-1.7c0.5,1.4,1.1,2.9,1.7,4.3L20.4,209.8z M289.8,208.3l-4.4-1.8c0.6-1.4,1.1-2.9,1.6-4.4l4.5,1.6
		C291,205.3,290.4,206.8,289.8,208.3z M16.1,198c-0.5-1.5-0.9-3.1-1.4-4.6l4.6-1.3c0.4,1.5,0.9,3,1.3,4.5L16.1,198z M293.9,196.5
		l-4.6-1.4c0.4-1.5,0.9-3,1.3-4.5l4.6,1.2C294.8,193.4,294.4,195,293.9,196.5z M13,185.9c-0.3-1.6-0.7-3.1-0.9-4.7l4.7-0.9
		c0.3,1.5,0.6,3,0.9,4.6L13,185.9z M297,184.4l-4.7-1c0.3-1.5,0.6-3,0.9-4.6l4.7,0.8C297.6,181.2,297.3,182.8,297,184.4z
		 M10.8,173.6c-0.2-1.6-0.4-3.2-0.5-4.8l4.7-0.5c0.1,1.5,0.3,3.1,0.5,4.6L10.8,173.6z M299,172l-4.7-0.6c0.2-1.5,0.3-3.1,0.5-4.6
		l4.7,0.4C299.3,168.8,299.2,170.5,299,172z M9.7,161.2c-0.1-1.6-0.1-3.2-0.1-4.8l4.8-0.1c0,1.5,0.1,3.1,0.1,4.6L9.7,161.2z
		 M299.9,159.6l-4.8-0.2c0-1.5,0.1-3.1,0.1-4.6v-0.3h4.8v0.3C300,156.4,300,158,299.9,159.6z M14.5,148.9l-4.8-0.2
		c0.1-1.6,0.2-3.2,0.3-4.8l4.7,0.4C14.6,145.8,14.5,147.3,14.5,148.9z M295,147.1c-0.1-1.5-0.2-3.1-0.3-4.6l4.7-0.4
		c0.1,1.6,0.3,3.2,0.3,4.8L295,147.1z M15.5,136.9l-4.7-0.6c0.2-1.6,0.4-3.2,0.7-4.8l4.7,0.8C15.9,133.8,15.7,135.3,15.5,136.9z
		 M293.9,135c-0.2-1.5-0.5-3.1-0.7-4.6l4.7-0.8c0.3,1.6,0.5,3.2,0.7,4.7L293.9,135z M17.5,125l-4.6-1c0.3-1.6,0.7-3.1,1.1-4.7
		l4.6,1.2C18.2,121.9,17.9,123.4,17.5,125z M291.7,123.2c-0.3-1.5-0.7-3-1.1-4.5l4.6-1.2c0.4,1.5,0.8,3.1,1.2,4.7L291.7,123.2z
		 M20.6,113.3l-4.5-1.4c0.5-1.5,1-3.1,1.5-4.6l4.5,1.6C21.5,110.3,21.1,111.8,20.6,113.3z M288.4,111.5c-0.5-1.5-1-3-1.5-4.4
		l4.5-1.6c0.5,1.5,1.1,3,1.6,4.5L288.4,111.5z M24.7,101.9l-4.4-1.8c0.6-1.5,1.2-3,1.9-4.4l4.3,1.9C25.9,99,25.3,100.4,24.7,101.9z
		 M284.2,100.2c-0.6-1.4-1.2-2.8-1.9-4.2l4.3-2c0.7,1.4,1.3,2.9,1.9,4.4L284.2,100.2z M29.7,90.9l-4.2-2.2c0.7-1.4,1.5-2.8,2.3-4.2
		l4.2,2.3C31.2,88.1,30.4,89.5,29.7,90.9z M279.1,89.3c-0.7-1.4-1.5-2.7-2.2-4.1l4.1-2.4c0.8,1.4,1.6,2.8,2.3,4.2L279.1,89.3z
		 M35.7,80.3l-4-2.5c0.8-1.4,1.7-2.7,2.6-4l3.9,2.7C37.4,77.7,36.5,79,35.7,80.3z M273,78.9c-0.8-1.3-1.7-2.6-2.6-3.9l3.9-2.7
		c0.9,1.3,1.8,2.7,2.7,4L273,78.9z M42.5,70.4l-3.8-2.9c1-1.3,2-2.6,3-3.8l3.7,3C44.4,67.9,43.5,69.1,42.5,70.4z M266,69
		c-0.9-1.2-1.9-2.4-2.9-3.6l3.7-3c1,1.2,2,2.5,3,3.8L266,69z M50.2,61l-3.5-3.2c1.1-1.2,2.2-2.4,3.3-3.5l3.4,3.3
		C52.3,58.8,51.3,59.9,50.2,61z M258.2,59.8c-1-1.1-2.1-2.3-3.2-3.4l3.4-3.3c1.1,1.1,2.2,2.3,3.3,3.5L258.2,59.8z M58.7,52.4
		l-3.3-3.5c1.2-1.1,2.4-2.2,3.6-3.2l3.1,3.6C61,50.3,59.8,51.3,58.7,52.4z M249.7,51.3c-1.1-1-2.3-2.1-3.5-3.1l3.1-3.6
		c1.2,1,2.4,2.1,3.6,3.2L249.7,51.3z M67.8,44.5l-2.9-3.7c1.3-1,2.5-2,3.8-2.9l2.8,3.8C70.3,42.6,69,43.6,67.8,44.5z M240.4,43.5
		c-1.2-0.9-2.5-1.9-3.7-2.8l2.8-3.9c1.3,0.9,2.6,1.9,3.9,2.9L240.4,43.5z M77.6,37.4l-2.6-4c1.3-0.9,2.7-1.7,4-2.6l2.5,4.1
		C80.2,35.8,78.9,36.6,77.6,37.4z M230.6,36.5c-1.3-0.8-2.6-1.7-4-2.4L229,30c1.4,0.8,2.8,1.7,4.1,2.5L230.6,36.5z M88,31.2
		l-2.3-4.2c1.4-0.8,2.8-1.5,4.3-2.2l2.1,4.3C90.7,29.8,89.3,30.5,88,31.2z M220.1,30.4c-1.4-0.7-2.8-1.4-4.2-2.1L218,24
		c1.4,0.7,2.9,1.4,4.3,2.2L220.1,30.4z M98.8,26l-1.9-4.4c1.5-0.6,2.9-1.3,4.4-1.8l1.8,4.4C101.6,24.8,100.2,25.4,98.8,26z
		 M209.2,25.3c-1.4-0.6-2.9-1.2-4.3-1.7l1.7-4.4c1.5,0.6,3,1.2,4.5,1.8L209.2,25.3z M110.1,21.6l-1.5-4.5c1.5-0.5,3-1,4.6-1.5
		l1.4,4.6C113,20.7,111.5,21.1,110.1,21.6z M197.8,21.1c-1.5-0.5-3-0.9-4.4-1.3l1.3-4.6c1.5,0.4,3.1,0.9,4.6,1.4L197.8,21.1z
		 M121.7,18.3l-1.1-4.6c1.6-0.4,3.1-0.7,4.7-1.1l1,4.7C124.7,17.6,123.2,17.9,121.7,18.3z M186.2,17.9c-1.5-0.3-3-0.7-4.5-1l0.9-4.7
		c1.6,0.3,3.2,0.6,4.7,1L186.2,17.9z M133.5,16l-0.7-4.7c1.6-0.2,3.2-0.5,4.8-0.6l0.6,4.7C136.6,15.5,135,15.7,133.5,16z
		 M174.3,15.7c-1.5-0.2-3.1-0.4-4.6-0.6l0.5-4.7c1.6,0.2,3.2,0.4,4.8,0.6L174.3,15.7z M145.5,14.7l-0.3-4.7c1.6-0.1,3.2-0.2,4.8-0.2
		l0.2,4.8C148.6,14.5,147.1,14.6,145.5,14.7z M162.2,14.5c-1.5-0.1-3.1-0.1-4.6-0.2l0.1-4.8c1.6,0,3.2,0.1,4.8,0.2L162.2,14.5z"/>
</g>
</svg>
