<?xml version="1.0" encoding="utf-8"?>
<!-- Generator: Adobe Illustrator 19.0.0, SVG Export Plug-In . SVG Version: 6.00 Build 0)  -->
<svg version="1.1" id="Layer_1" xmlns="http://www.w3.org/2000/svg" xmlns:xlink="http://www.w3.org/1999/xlink" x="0px" y="0px"
	 viewBox="66.6 444.5 411 216" style="enable-background:new 66.6 444.5 411 216;" xml:space="preserve">
<style type="text/css">
	.st0{fill:none;stroke:#FFFFFF;stroke-width:5;stroke-miterlimit:10;}
	.st1{fill:none;stroke:#FFFFFF;stroke-width:5;stroke-miterlimit:10;stroke-dasharray:12.1708,6.0854;}
	.st2{fill:none;stroke:#FFFFFF;stroke-width:5;stroke-miterlimit:10;stroke-dasharray:12.7813,6.3906;}
	.st3{fill:#FFFFFF;stroke:#FFFFFF;stroke-miterlimit:10;}
	.st4{font-family:'TradeGothicLTStd-BdCn20';}
	.st5{font-size:21.0356px;}
	.st6{fill:#1D1D1D;}
</style>
<g id="XMLID_36_">
	<path id="XMLID_41_" d="M275.4,598.3c7.9,0,8.9,0,12,0.2c2.9,0.1,4.5,0.6,5.5,1c1.4,0.5,2.4,1.2,3.4,2.2c1,1,1.7,2,2.2,3.4
		c0.4,1,0.9,2.6,1,5.5c0.1,3.1,0.2,4.1,0.2,12c0,7.9,0,8.9-0.2,12c-0.1,2.9-0.6,4.5-1,5.5c-0.5,1.4-1.2,2.4-2.2,3.4
		c-1,1-2,1.7-3.4,2.2c-1,0.4-2.6,0.9-5.5,1c-3.1,0.1-4.1,0.2-12,0.2s-8.9,0-12-0.2c-2.9-0.1-4.5-0.6-5.5-1c-1.4-0.5-2.4-1.2-3.4-2.2
		c-1-1-1.7-2-2.2-3.4c-0.4-1-0.9-2.6-1-5.5c-0.1-3.1-0.2-4.1-0.2-12c0-7.9,0-8.9,0.2-12c0.1-2.9,0.6-4.5,1-5.5
		c0.5-1.4,1.2-2.4,2.2-3.4c1-1,2-1.7,3.4-2.2c1-0.4,2.6-0.9,5.5-1C266.5,598.4,267.4,598.3,275.4,598.3 M275.4,593
		c-8.1,0-9.1,0-12.3,0.2c-3.2,0.1-5.3,0.6-7.2,1.4c-2,0.8-3.6,1.8-5.3,3.4c-1.7,1.7-2.7,3.3-3.4,5.3c-0.7,1.9-1.2,4.1-1.4,7.2
		c-0.1,3.2-0.2,4.2-0.2,12.3s0,9.1,0.2,12.3c0.1,3.2,0.6,5.3,1.4,7.2c0.8,2,1.8,3.6,3.4,5.3c1.7,1.7,3.3,2.7,5.3,3.4
		c1.9,0.7,4.1,1.2,7.2,1.4c3.2,0.1,4.2,0.2,12.3,0.2s9.1,0,12.3-0.2c3.2-0.1,5.3-0.6,7.2-1.4c2-0.8,3.6-1.8,5.3-3.4
		c1.7-1.7,2.7-3.3,3.4-5.3c0.7-1.9,1.2-4.1,1.4-7.2c0.1-3.2,0.2-4.2,0.2-12.3c0-8.1,0-9.1-0.2-12.3c-0.1-3.2-0.6-5.3-1.4-7.2
		c-0.8-2-1.8-3.6-3.4-5.3s-3.3-2.7-5.3-3.4c-1.9-0.7-4.1-1.2-7.2-1.4C284.5,593,283.5,593,275.4,593L275.4,593z"/>
	<path id="XMLID_38_" d="M275.4,607.5c-8.4,0-15.3,6.8-15.3,15.3c0,8.4,6.8,15.3,15.3,15.3s15.3-6.8,15.3-15.3
		C290.7,614.3,283.8,607.5,275.4,607.5z M275.4,632.7c-5.5,0-9.9-4.4-9.9-9.9s4.4-9.9,9.9-9.9s9.9,4.4,9.9,9.9
		S280.9,632.7,275.4,632.7z"/>
	<circle id="XMLID_37_" cx="291.3" cy="606.9" r="3.6"/>
</g>
<g id="XMLID_30_">
	<g id="XMLID_32_">
		<line id="XMLID_35_" class="st0" x1="372.5" y1="537" x2="372.5" y2="543"/>
		<path id="XMLID_34_" class="st1" d="M372.5,549.1v49.1c0,13.2-10.7,24-24,24h-19.8"/>
		<line id="XMLID_33_" class="st0" x1="325.7" y1="622.1" x2="319.7" y2="622.1"/>
	</g>
</g>
<g id="XMLID_24_">
	<g id="XMLID_26_">
		<line id="XMLID_29_" class="st0" x1="230.3" y1="622.1" x2="224.3" y2="622.1"/>
		<path id="XMLID_28_" class="st2" d="M217.9,622.1h-22.2c-13.2,0-24-10.7-24-24v-51.9"/>
		<line id="XMLID_27_" class="st0" x1="171.7" y1="543" x2="171.7" y2="537"/>
	</g>
</g>
<g id="XMLID_18_">
	<path id="XMLID_20_" d="M372.5,454.8c8.6,0,15.6,7,15.6,15.6s-7,15.6-15.6,15.6c-8.6,0-15.6-7-15.6-15.6S363.9,454.8,372.5,454.8z
		 M372.5,523.7c-17.6,0-33.8-1.5-33.8-12.6c0-9.8,14.8-21.1,33.8-21.1c19.1,0,33.8,11.3,33.8,21.1
		C406.3,522.2,390.1,523.7,372.5,523.7z"/>
	<path id="XMLID_19_" class="st3" d="M381.2,499c-0.3-0.4-0.9-0.4-1.3-0.1c-0.8,0.6-1.6,0.2-3.2-1c-1.6-1.1-3.5-2.5-5.5-1l0,0
		c-0.1,0.1-0.1,0.1-0.2,0.2c0,0,0,0.1-0.1,0.1c-0.1,0.1-0.1,0.3-0.1,0.4l0,0v12c-0.4-0.2-0.8-0.3-1.2-0.4c-1.2-0.1-2.4,0.1-3.4,0.8
		c-1,0.6-1.9,1.5-2.3,2.6c-0.5,1-0.4,2.2,0.1,3.2c0.6,1,1.6,1.6,2.7,1.7c0.2,0,0.4,0,0.6,0c1,0,2-0.3,2.8-0.8c1.5-0.8,2.5-2.3,2.7-4
		c0-0.1,0-0.1,0-0.2V502c0.9-1,1.7-0.8,3.1-0.4c1.4,0.4,3.5,1,5.3-1.3C381.5,499.9,381.5,499.3,381.2,499z"/>
</g>
<g id="XMLID_13_">
	<path id="XMLID_15_" d="M171.7,454.8c8.6,0,15.6,7,15.6,15.6s-7,15.6-15.6,15.6c-8.6,0-15.6-7-15.6-15.6S163.1,454.8,171.7,454.8z
		 M171.7,523.7c-17.6,0-33.8-1.5-33.8-12.6c0-9.8,14.8-21.1,33.8-21.1c19.1,0,33.8,11.3,33.8,21.1
		C205.5,522.2,189.3,523.7,171.7,523.7z"/>
	<path id="XMLID_14_" class="st3" d="M180.4,499c-0.3-0.4-0.9-0.4-1.3-0.1c-0.8,0.6-1.6,0.2-3.2-1c-1.6-1.1-3.5-2.5-5.5-1l0,0
		c-0.1,0.1-0.1,0.1-0.2,0.2c0,0,0,0.1-0.1,0.1c-0.1,0.1-0.1,0.3-0.1,0.4l0,0v12c-0.4-0.2-0.8-0.3-1.2-0.4c-1.2-0.1-2.4,0.1-3.4,0.8
		c-1,0.6-1.9,1.5-2.3,2.6c-0.5,1-0.4,2.2,0.1,3.2c0.6,1,1.6,1.6,2.7,1.7c0.2,0,0.4,0,0.6,0c1,0,2-0.3,2.8-0.8c1.5-0.8,2.5-2.3,2.7-4
		c0-0.1,0-0.1,0-0.2V502c0.9-1,1.7-0.8,3.1-0.4c1.4,0.4,3.5,1,5.3-1.3C180.7,499.9,180.7,499.3,180.4,499z"/>
</g>
<g id="XMLID_3_">
	<text id="XMLID_12_" transform="matrix(1 0 0 1 276.7651 497.7624)" class="st4 st5">96</text>
	<path id="XMLID_8_" d="M307.9,469.6c0-2.8-2.3-5.1-5.1-5.1l0,0h-61.4c-2.8,0-5.1,2.3-5.1,5.1l0,0v41.9H308L307.9,469.6L307.9,469.6
		z M302.8,506.6h-61.4v-37.2h61.4L302.8,506.6z M279.6,513.2c0.1,0.3,0.2,0.6,0.2,0.9c0,1.1-0.9,1.9-1.9,1.9l0,0h-11.5
		c-1.1,0-1.9-0.9-1.9-1.9l0,0c0-0.3,0.1-0.6,0.2-0.9h-35.7c0,3.9,3.5,7.1,7.8,7.1h70.7c4.3,0,7.8-3.2,7.8-7.1H279.6z"/>
	<g id="XMLID_5_">
		<polygon id="XMLID_7_" class="st6" points="267.1,482.4 249,482.4 252.4,497.5 255.9,497.5 255.9,503 260.1,503 260.1,497.5 
			263.6,497.5 		"/>
		<rect id="XMLID_6_" x="255.9" y="473.5" class="st6" width="4.2" height="7.2"/>
	</g>
	<polygon id="XMLID_4_" class="st6" points="272.1,482.4 268.7,497.5 270.9,497.5 274.4,482.4 	"/>
</g>
</svg>
