<svg version="1.1" id="soundSvg" xmlns="http://www.w3.org/2000/svg" viewBox="-8132 8133.4 117.5 117.5" >
<path d="M-8073.3,8148.5c24.3,0,44,19.7,44,44c0,24.3-19.7,44-44,44c-24.3,0-44-19.7-44-44
	C-8117.3,8168.2-8097.6,8148.5-8073.3,8148.5z M-8073.2,8246.5c-0.6,0-1.2,0-1.8,0l0.2-5c0.6,0,1.1,0,1.7,0c1,0,2.1,0,3.1-0.1l0.3,5
	C-8070.9,8246.5-8072.1,8246.5-8073.2,8246.5z M-8083.4,8245.6c-1.7-0.3-3.4-0.7-5.1-1.2l1.4-4.8c1.5,0.4,3.1,0.8,4.6,1.1
	L-8083.4,8245.6z M-8061.5,8245.2l-1.1-4.9c1.6-0.3,3.1-0.8,4.6-1.3l1.5,4.8C-8058.1,8244.4-8059.8,8244.9-8061.5,8245.2z
	 M-8096.4,8241.4c-1.6-0.7-3.1-1.6-4.6-2.5l2.6-4.3c1.4,0.8,2.8,1.6,4.2,2.2L-8096.4,8241.4z M-8048.6,8240.7l-2.3-4.5
	c1.4-0.7,2.8-1.5,4.1-2.4l2.7,4.2C-8045.5,8239-8047.1,8239.9-8048.6,8240.7z M-8107.9,8234.1c-1.3-1.1-2.6-2.3-3.9-3.5l3.5-3.5
	c1.1,1.1,2.3,2.2,3.5,3.2L-8107.9,8234.1z M-8037.3,8233l-3.3-3.8c1.2-1,2.3-2.2,3.4-3.3l3.6,3.4
	C-8034.8,8230.6-8036,8231.8-8037.3,8233z M-8117.2,8224.2c-1-1.4-2-2.9-2.9-4.4l4.3-2.5c0.8,1.4,1.7,2.7,2.6,4L-8117.2,8224.2z
	 M-8028.3,8222.8l-4.1-2.8c0.9-1.3,1.7-2.7,2.5-4.1l4.4,2.4C-8026.4,8219.8-8027.3,8221.3-8028.3,8222.8z M-8123.8,8212.2
	c-0.6-1.6-1.2-3.3-1.7-5l4.8-1.4c0.4,1.5,1,3,1.5,4.5L-8123.8,8212.2z M-8022.1,8210.7l-4.7-1.7c0.5-1.5,1-3,1.4-4.6l4.8,1.2
	C-8021,8207.3-8021.5,8209-8022.1,8210.7z M-8127.2,8199c-0.2-1.7-0.4-3.5-0.4-5.2l5-0.2c0,1.6,0.2,3.2,0.4,4.8L-8127.2,8199z
	 M-8019.1,8197.4l-5-0.5c0.2-1.6,0.2-3.2,0.2-4.8v-0.2h5v0.2C-8018.8,8193.9-8018.9,8195.6-8019.1,8197.4z M-8122.3,8186l-5-0.6
	c0.2-1.7,0.5-3.5,0.9-5.2l4.9,1.1C-8121.8,8182.9-8122.1,8184.4-8122.3,8186z M-8024.4,8184.3c-0.2-1.6-0.6-3.1-1-4.7l4.8-1.3
	c0.4,1.7,0.8,3.4,1.1,5.1L-8024.4,8184.3z M-8119.3,8174l-4.7-1.8c0.6-1.6,1.4-3.2,2.2-4.8l4.5,2.3
	C-8118,8171.1-8118.7,8172.5-8119.3,8174z M-8027.9,8172.4c-0.6-1.5-1.3-2.9-2.1-4.3l4.4-2.4c0.8,1.5,1.6,3.1,2.3,4.7
	L-8027.9,8172.4z M-8113.3,8163.1l-4-2.9c1-1.4,2.1-2.8,3.3-4.1l3.7,3.3C-8111.4,8160.6-8112.4,8161.9-8113.3,8163.1z
	 M-8034.2,8161.8c-1-1.3-2-2.5-3.1-3.6l3.6-3.4c1.2,1.3,2.4,2.6,3.4,4L-8034.2,8161.8z M-8104.9,8154.1l-3.2-3.8
	c1.3-1.1,2.8-2.2,4.2-3.2l2.8,4.1C-8102.4,8152.1-8103.6,8153.1-8104.9,8154.1z M-8043,8153c-1.3-1-2.6-1.9-3.9-2.7l2.7-4.2
	c1.5,0.9,2.9,1.9,4.3,3L-8043,8153z M-8094.4,8147.4l-2.1-4.5c1.6-0.7,3.2-1.4,4.9-2l1.7,4.7
	C-8091.5,8146.1-8093,8146.8-8094.4,8147.4z M-8053.7,8146.7c-1.5-0.6-3-1.2-4.5-1.7l1.5-4.8c1.7,0.5,3.3,1.2,4.9,1.8
	L-8053.7,8146.7z M-8082.7,8143.6l-0.9-4.9c1.7-0.3,3.5-0.6,5.2-0.7l0.5,5C-8079.5,8143.1-8081.1,8143.3-8082.7,8143.6z
	 M-8065.6,8143.3c-1.6-0.2-3.2-0.4-4.7-0.5l0.3-5c1.7,0.1,3.5,0.3,5.2,0.6L-8065.6,8143.3z"/>
</svg>
