<?xml version="1.0" encoding="utf-8"?>
<!-- Generator: Adobe Illustrator 19.0.0, SVG Export Plug-In . SVG Version: 6.00 Build 0)  -->
<svg version="1.1" id="Layer_1" xmlns="http://www.w3.org/2000/svg" xmlns:xlink="http://www.w3.org/1999/xlink" x="0px" y="0px"
	 viewBox="0 0 393.2 96.5" style="enable-background:new 0 0 393.2 96.5;" xml:space="preserve">
<style type="text/css">
	.st0{fill:none;}
</style>
<path id="XMLID_6206_" class="st0" d="M199.6,92c0,1.7-1.4,3.2-3.1,3.2c-1.7,0-3.1-1.4-3.1-3.2c0-1.8,1.4-3.2,3.1-3.2
	C198.2,88.9,199.6,90.3,199.6,92z M196.5,79.3c-1.6,0-3,1.3-3,3c0,1.6,1.3,3,3,3c1.6,0,3-1.4,3-3C199.5,80.7,198.1,79.3,196.5,79.3z
	 M196.5,69.8c-1.5,0-2.8,1.3-2.8,2.8c0,1.6,1.3,2.8,2.8,2.8c1.5,0,2.8-1.3,2.8-2.8C199.3,71.1,198,69.8,196.5,69.8z M196.5,60.3
	c-1.5,0-2.6,1.2-2.6,2.6c0,1.5,1.2,2.7,2.6,2.7c1.4,0,2.6-1.2,2.6-2.7C199.1,61.5,197.9,60.3,196.5,60.3z M196.5,50.8
	c-1.4,0-2.5,1.1-2.5,2.5c0,1.4,1.1,2.5,2.5,2.5c1.3,0,2.4-1.1,2.4-2.5C198.9,51.9,197.8,50.8,196.5,50.8z M196.5,41.2
	c-1.3,0-2.3,1.1-2.3,2.3c0,1.3,1,2.3,2.3,2.3c1.3,0,2.3-1.1,2.3-2.3C198.8,42.3,197.8,41.2,196.5,41.2z M196.5,31.7
	c-1.2,0-2.1,1-2.1,2.1c0,1.2,0.9,2.1,2.1,2.1c1.2,0,2.1-1,2.1-2.1C198.6,32.7,197.7,31.7,196.5,31.7z M196.5,22.2
	c-1.1,0-1.9,0.9-1.9,2c0,1.1,0.9,2,1.9,2c1.1,0,1.9-0.9,1.9-2C198.4,23.1,197.6,22.2,196.5,22.2z M196.5,12.7c-1,0-1.8,0.8-1.8,1.8
	c0,1,0.8,1.8,1.8,1.8c1,0,1.8-0.8,1.8-1.8C198.3,13.5,197.5,12.7,196.5,12.7z M196.5,3.1c-0.9,0-1.6,0.7-1.6,1.6
	c0,0.9,0.7,1.6,1.6,1.6c0.9,0,1.6-0.8,1.6-1.6C198.1,3.9,197.4,3.1,196.5,3.1z M388.1,90.5c-0.8,0-1.5,0.7-1.5,1.5
	c0,0.8,0.6,1.5,1.5,1.5c0.8,0,1.5-0.7,1.5-1.5C389.6,91.2,388.9,90.5,388.1,90.5z M388.1,80.8c-0.8,0-1.5,0.7-1.5,1.5
	c0,0.8,0.6,1.5,1.5,1.5c0.8,0,1.5-0.7,1.5-1.5C389.6,81.5,388.9,80.8,388.1,80.8z M388.1,71.1c-0.8,0-1.5,0.7-1.5,1.5
	c0,0.8,0.7,1.5,1.5,1.5c0.8,0,1.5-0.7,1.5-1.5C389.6,71.8,388.9,71.1,388.1,71.1z M388.1,61.4c-0.8,0-1.5,0.7-1.5,1.5
	c0,0.8,0.7,1.5,1.5,1.5c0.8,0,1.5-0.7,1.5-1.5C389.6,62.1,388.9,61.4,388.1,61.4z M388.1,51.8c-0.8,0-1.5,0.6-1.5,1.5
	c0,0.8,0.7,1.5,1.5,1.5c0.8,0,1.5-0.6,1.5-1.5C389.6,52.4,388.9,51.8,388.1,51.8z M388.1,42.1c-0.8,0-1.5,0.7-1.5,1.5
	c0,0.8,0.7,1.5,1.5,1.5c0.8,0,1.5-0.7,1.5-1.5C389.6,42.7,388.9,42.1,388.1,42.1z M388.1,32.4c-0.8,0-1.5,0.6-1.5,1.5
	c0,0.8,0.7,1.5,1.5,1.5c0.8,0,1.5-0.7,1.5-1.5C389.6,33,388.9,32.4,388.1,32.4z M388.1,22.7c-0.8,0-1.4,0.6-1.4,1.5
	c0,0.8,0.6,1.5,1.4,1.5c0.8,0,1.5-0.7,1.5-1.5C389.6,23.3,388.9,22.7,388.1,22.7z M388.1,13c-0.8,0-1.4,0.6-1.4,1.4
	c0,0.8,0.6,1.5,1.4,1.5c0.8,0,1.5-0.6,1.5-1.5C389.6,13.7,388.9,13,388.1,13z M388.1,3.3c-0.8,0-1.4,0.6-1.4,1.5
	c0,0.8,0.6,1.5,1.4,1.5c0.8,0,1.4-0.7,1.4-1.5C389.5,4,388.9,3.3,388.1,3.3z M378.5,90.4c-0.8,0-1.6,0.8-1.6,1.6
	c0,0.9,0.7,1.6,1.6,1.6c0.9,0,1.6-0.7,1.6-1.6C380.1,91.2,379.4,90.4,378.5,90.4z M378.5,80.7c-0.8,0-1.6,0.7-1.6,1.6
	c0,0.9,0.7,1.6,1.6,1.6c0.9,0,1.6-0.7,1.6-1.6C380.1,81.5,379.4,80.7,378.5,80.7z M378.5,71.1c-0.8,0-1.5,0.7-1.5,1.6
	c0,0.9,0.7,1.6,1.5,1.6c0.9,0,1.6-0.7,1.6-1.6C380.1,71.8,379.4,71.1,378.5,71.1z M378.5,61.4c-0.8,0-1.5,0.7-1.5,1.6
	c0,0.9,0.7,1.5,1.5,1.5c0.9,0,1.5-0.7,1.5-1.5C380,62.1,379.4,61.4,378.5,61.4z M378.5,51.7c-0.8,0-1.5,0.7-1.5,1.5
	c0,0.8,0.7,1.5,1.5,1.5c0.9,0,1.5-0.7,1.5-1.5C380,52.4,379.4,51.7,378.5,51.7z M378.5,42c-0.8,0-1.5,0.7-1.5,1.5
	c0,0.8,0.7,1.5,1.5,1.5c0.9,0,1.5-0.7,1.5-1.5C380,42.7,379.4,42,378.5,42z M378.5,32.3c-0.8,0-1.5,0.7-1.5,1.5
	c0,0.8,0.7,1.5,1.5,1.5c0.8,0,1.5-0.7,1.5-1.5C380,33,379.3,32.3,378.5,32.3z M378.5,22.7c-0.8,0-1.5,0.7-1.5,1.5
	c0,0.8,0.7,1.5,1.5,1.5c0.8,0,1.5-0.7,1.5-1.5C380,23.3,379.3,22.7,378.5,22.7z M378.5,13c-0.8,0-1.5,0.6-1.5,1.5
	c0,0.8,0.7,1.5,1.5,1.5c0.8,0,1.5-0.6,1.5-1.5C380,13.6,379.3,13,378.5,13z M378.5,3.3c-0.8,0-1.4,0.7-1.4,1.5
	c0,0.8,0.6,1.5,1.4,1.5c0.8,0,1.5-0.7,1.5-1.5C380,4,379.3,3.3,378.5,3.3z M368.9,90.4c-0.9,0-1.7,0.8-1.7,1.7
	c0,0.9,0.7,1.7,1.7,1.7s1.7-0.8,1.7-1.7C370.6,91.1,369.9,90.4,368.9,90.4z M368.9,80.7c-0.9,0-1.7,0.7-1.7,1.7
	c0,0.9,0.8,1.7,1.7,1.7c0.9,0,1.7-0.8,1.7-1.7C370.6,81.4,369.8,80.7,368.9,80.7z M368.9,71c-0.9,0-1.6,0.7-1.6,1.6
	c0,0.9,0.7,1.7,1.6,1.7c0.9,0,1.6-0.8,1.6-1.7C370.6,71.7,369.8,71,368.9,71z M368.9,61.3c-0.9,0-1.6,0.7-1.6,1.6
	c0,0.9,0.7,1.6,1.6,1.6c0.9,0,1.6-0.7,1.6-1.6C370.5,62.1,369.8,61.3,368.9,61.3z M368.9,51.7c-0.9,0-1.6,0.7-1.6,1.6
	c0,0.9,0.7,1.6,1.6,1.6c0.9,0,1.6-0.7,1.6-1.6C370.5,52.4,369.8,51.7,368.9,51.7z M368.9,42c-0.8,0-1.5,0.7-1.5,1.6
	c0,0.9,0.7,1.6,1.5,1.6c0.8,0,1.6-0.7,1.6-1.6C370.5,42.7,369.8,42,368.9,42z M368.9,32.3c-0.8,0-1.5,0.7-1.5,1.5
	c0,0.9,0.7,1.5,1.5,1.5c0.8,0,1.5-0.7,1.5-1.5C370.5,33,369.8,32.3,368.9,32.3z M368.9,22.6c-0.8,0-1.5,0.7-1.5,1.5
	c0,0.8,0.7,1.5,1.5,1.5c0.8,0,1.5-0.7,1.5-1.5C370.5,23.3,369.8,22.6,368.9,22.6z M368.9,13c-0.8,0-1.5,0.7-1.5,1.5
	c0,0.8,0.7,1.5,1.5,1.5c0.8,0,1.5-0.7,1.5-1.5C370.4,13.6,369.8,13,368.9,13z M368.9,3.3c-0.8,0-1.5,0.7-1.5,1.5
	c0,0.8,0.6,1.5,1.5,1.5c0.8,0,1.5-0.6,1.5-1.5C370.4,4,369.7,3.3,368.9,3.3z M359.4,90.3c-1,0-1.8,0.8-1.8,1.8c0,1,0.8,1.8,1.8,1.8
	c1,0,1.7-0.8,1.7-1.8C361.1,91.1,360.3,90.3,359.4,90.3z M359.4,80.6c-1,0-1.7,0.8-1.7,1.8c0,1,0.8,1.7,1.7,1.7
	c0.9,0,1.7-0.8,1.7-1.7C361.1,81.4,360.3,80.6,359.4,80.6z M359.4,70.9c-1,0-1.7,0.8-1.7,1.7c0,1,0.8,1.7,1.7,1.7
	c0.9,0,1.7-0.8,1.7-1.7C361,71.7,360.3,70.9,359.4,70.9z M359.4,61.3c-0.9,0-1.7,0.8-1.7,1.7c0,0.9,0.7,1.7,1.7,1.7
	c0.9,0,1.7-0.7,1.7-1.7C361,62,360.3,61.3,359.4,61.3z M359.4,51.6c-0.9,0-1.6,0.7-1.6,1.7c0,0.9,0.7,1.6,1.6,1.6
	c0.9,0,1.6-0.7,1.6-1.6C361,52.3,360.2,51.6,359.4,51.6z M359.4,41.9c-0.9,0-1.6,0.7-1.6,1.6c0,0.9,0.7,1.6,1.6,1.6
	c0.9,0,1.6-0.7,1.6-1.6C361,42.7,360.2,41.9,359.4,41.9z M359.4,32.3c-0.9,0-1.6,0.7-1.6,1.6c0,0.9,0.7,1.6,1.6,1.6
	c0.8,0,1.5-0.7,1.5-1.6C360.9,33,360.2,32.3,359.4,32.3z M359.4,22.6c-0.9,0-1.5,0.7-1.5,1.5c0,0.9,0.7,1.6,1.5,1.6
	c0.8,0,1.5-0.7,1.5-1.6C360.9,23.3,360.2,22.6,359.4,22.6z M359.4,13c-0.8,0-1.5,0.7-1.5,1.5c0,0.8,0.7,1.5,1.5,1.5
	c0.8,0,1.5-0.7,1.5-1.5C360.8,13.6,360.2,13,359.4,13z M359.4,3.3c-0.8,0-1.5,0.7-1.5,1.5c0,0.8,0.7,1.5,1.5,1.5
	c0.8,0,1.5-0.6,1.5-1.5C360.8,4,360.2,3.3,359.4,3.3z M349.8,90.2c-1,0-1.9,0.8-1.9,1.9c0,1,0.8,1.9,1.9,1.9c1,0,1.8-0.8,1.8-1.9
	C351.6,91,350.8,90.2,349.8,90.2z M349.8,80.5c-1,0-1.8,0.8-1.8,1.9c0,1,0.8,1.8,1.8,1.8c1,0,1.8-0.8,1.8-1.8
	C351.6,81.4,350.8,80.5,349.8,80.5z M349.8,70.9c-1,0-1.8,0.8-1.8,1.8c0,1,0.8,1.8,1.8,1.8c1,0,1.7-0.8,1.7-1.8
	C351.5,71.7,350.7,70.9,349.8,70.9z M349.8,61.2c-1,0-1.7,0.8-1.7,1.7c0,1,0.8,1.7,1.7,1.7c0.9,0,1.7-0.8,1.7-1.7
	C351.5,62,350.7,61.2,349.8,61.2z M349.8,51.6c-0.9,0-1.7,0.7-1.7,1.7c0,0.9,0.8,1.7,1.7,1.7c0.9,0,1.7-0.8,1.7-1.7
	C351.5,52.3,350.7,51.6,349.8,51.6z M349.8,41.9c-0.9,0-1.7,0.8-1.7,1.7c0,0.9,0.7,1.7,1.7,1.7c0.9,0,1.6-0.8,1.6-1.7
	C351.4,42.7,350.7,41.9,349.8,41.9z M349.8,32.2c-0.9,0-1.6,0.8-1.6,1.6c0,0.9,0.7,1.6,1.6,1.6c0.9,0,1.6-0.7,1.6-1.6
	C351.4,33,350.7,32.2,349.8,32.2z M349.8,22.6c-0.9,0-1.5,0.7-1.5,1.5c0,0.9,0.7,1.6,1.5,1.6c0.9,0,1.5-0.7,1.5-1.6
	C351.3,23.3,350.7,22.6,349.8,22.6z M349.8,12.9c-0.8,0-1.5,0.7-1.5,1.5c0,0.9,0.7,1.5,1.5,1.5c0.8,0,1.5-0.7,1.5-1.5
	C351.3,13.6,350.6,12.9,349.8,12.9z M349.8,3.3c-0.8,0-1.5,0.7-1.5,1.5c0,0.8,0.6,1.5,1.5,1.5c0.8,0,1.5-0.7,1.5-1.5
	C351.2,4,350.6,3.3,349.8,3.3z M340.2,90.1c-1.1,0-1.9,0.9-1.9,1.9c0,1.1,0.9,2,1.9,2c1,0,1.9-0.9,1.9-2
	C342.1,91,341.2,90.1,340.2,90.1z M340.2,80.5c-1.1,0-1.9,0.8-1.9,1.9c0,1,0.8,1.9,1.9,1.9c1,0,1.9-0.9,1.9-1.9
	C342.1,81.3,341.2,80.5,340.2,80.5z M340.2,70.8c-1,0-1.8,0.8-1.8,1.8c0,1,0.8,1.9,1.8,1.9c1,0,1.8-0.8,1.8-1.9
	C342,71.6,341.2,70.8,340.2,70.8z M340.2,61.1c-1,0-1.8,0.8-1.8,1.8c0,1,0.8,1.8,1.8,1.8c1,0,1.8-0.8,1.8-1.8
	C342,61.9,341.2,61.1,340.2,61.1z M340.2,51.5c-1,0-1.7,0.8-1.7,1.8c0,1,0.8,1.7,1.7,1.7c0.9,0,1.7-0.8,1.7-1.7
	C341.9,52.3,341.1,51.5,340.2,51.5z M340.2,41.9c-0.9,0-1.7,0.7-1.7,1.7c0,1,0.7,1.7,1.7,1.7c0.9,0,1.7-0.7,1.7-1.7
	C341.9,42.6,341.1,41.9,340.2,41.9z M340.2,32.2c-0.9,0-1.6,0.8-1.6,1.7c0,0.9,0.7,1.7,1.6,1.7c0.9,0,1.6-0.7,1.6-1.7
	C341.8,33,341.1,32.2,340.2,32.2z M340.2,22.6c-0.9,0-1.6,0.7-1.6,1.6c0,0.9,0.7,1.6,1.6,1.6c0.9,0,1.6-0.7,1.6-1.6
	C341.8,23.3,341.1,22.6,340.2,22.6z M340.2,12.9c-0.9,0-1.5,0.7-1.5,1.5c0,0.9,0.7,1.6,1.5,1.6c0.8,0,1.5-0.7,1.5-1.6
	C341.7,13.6,341,12.9,340.2,12.9z M340.2,3.3c-0.8,0-1.5,0.7-1.5,1.5c0,0.8,0.7,1.5,1.5,1.5c0.8,0,1.5-0.7,1.5-1.5
	C341.7,3.9,341,3.3,340.2,3.3z M330.6,90c-1.1,0-2,0.9-2,2c0,1.1,0.9,2,2,2c1.1,0,2-0.9,2-2C332.6,90.9,331.7,90,330.6,90z
	 M330.6,80.4c-1.1,0-2,0.9-2,2c0,1.1,0.9,1.9,2,1.9c1.1,0,2-0.9,2-1.9C332.6,81.2,331.7,80.4,330.6,80.4z M330.6,70.7
	c-1.1,0-1.9,0.9-1.9,1.9c0,1.1,0.8,1.9,1.9,1.9c1.1,0,1.9-0.8,1.9-1.9C332.5,71.6,331.7,70.7,330.6,70.7z M330.6,61.1
	c-1,0-1.8,0.8-1.8,1.9c0,1,0.8,1.9,1.8,1.9c1,0,1.8-0.8,1.8-1.9C332.5,61.9,331.6,61.1,330.6,61.1z M330.6,51.5
	c-1,0-1.8,0.8-1.8,1.8c0,1,0.8,1.8,1.8,1.8c1,0,1.8-0.8,1.8-1.8C332.4,52.2,331.6,51.5,330.6,51.5z M330.6,41.8
	c-1,0-1.7,0.8-1.7,1.7c0,1,0.7,1.7,1.7,1.7c1,0,1.7-0.8,1.7-1.7C332.3,42.6,331.6,41.8,330.6,41.8z M330.6,32.2
	c-0.9,0-1.6,0.8-1.6,1.7c0,0.9,0.7,1.7,1.6,1.7c0.9,0,1.7-0.8,1.7-1.7C332.3,32.9,331.5,32.2,330.6,32.2z M330.6,22.6
	c-0.9,0-1.6,0.7-1.6,1.6c0,0.9,0.7,1.6,1.6,1.6c0.9,0,1.6-0.7,1.6-1.6C332.2,23.3,331.5,22.6,330.6,22.6z M330.6,12.9
	c-0.8,0-1.5,0.7-1.5,1.5c0,0.9,0.7,1.6,1.5,1.6c0.9,0,1.6-0.7,1.6-1.6C332.2,13.6,331.5,12.9,330.6,12.9z M330.6,3.3
	c-0.8,0-1.5,0.7-1.5,1.5c0,0.8,0.7,1.5,1.5,1.5c0.8,0,1.5-0.7,1.5-1.5C332.1,3.9,331.4,3.3,330.6,3.3z M321,89.9
	c-1.2,0-2.1,1-2.1,2.1c0,1.2,0.9,2.1,2.1,2.1c1.2,0,2.1-1,2.1-2.1C323.1,90.9,322.2,89.9,321,89.9z M321,80.3c-1.1,0-2,0.9-2,2.1
	c0,1.1,0.9,2,2,2c1.1,0,2-0.9,2-2C323,81.2,322.1,80.3,321,80.3z M321,70.7c-1.1,0-2,0.9-2,2c0,1.1,0.9,2,2,2c1.1,0,2-0.9,2-2
	C323,71.6,322.1,70.7,321,70.7z M321,61c-1,0-1.9,0.9-1.9,1.9c0,1,0.8,1.9,1.9,1.9c1.1,0,1.9-0.9,1.9-1.9
	C322.9,61.9,322.1,61,321,61z M321,51.4c-1,0-1.8,0.8-1.8,1.9c0,1,0.8,1.8,1.8,1.8c1,0,1.8-0.8,1.8-1.8
	C322.9,52.2,322,51.4,321,51.4z M321,41.8c-1,0-1.7,0.8-1.7,1.8c0,1,0.8,1.8,1.7,1.8c1,0,1.8-0.8,1.8-1.8
	C322.8,42.6,322,41.8,321,41.8z M321,32.1c-0.9,0-1.7,0.8-1.7,1.7c0,1,0.8,1.7,1.7,1.7c1,0,1.7-0.8,1.7-1.7
	C322.7,32.9,322,32.1,321,32.1z M321,22.5c-0.9,0-1.6,0.8-1.6,1.7c0,0.9,0.7,1.7,1.6,1.7c0.9,0,1.6-0.7,1.6-1.7
	C322.7,23.3,321.9,22.5,321,22.5z M321,12.9c-0.8,0-1.6,0.7-1.6,1.6c0,0.9,0.7,1.6,1.6,1.6c0.9,0,1.6-0.7,1.6-1.6
	C322.6,13.6,321.9,12.9,321,12.9z M321,3.3c-0.8,0-1.5,0.7-1.5,1.5c0,0.8,0.7,1.5,1.5,1.5c0.8,0,1.5-0.7,1.5-1.5
	C322.5,3.9,321.8,3.3,321,3.3z M311.4,89.8c-1.2,0-2.2,1-2.2,2.2c0,1.2,1,2.2,2.2,2.2c1.2,0,2.2-1,2.2-2.2
	C313.6,90.8,312.7,89.8,311.4,89.8z M311.4,80.2c-1.2,0-2.1,0.9-2.1,2.1c0,1.2,0.9,2.1,2.1,2.1c1.2,0,2.1-1,2.1-2.1
	C313.6,81.2,312.6,80.2,311.4,80.2z M311.4,70.6c-1.1,0-2,0.9-2,2c0,1.2,0.9,2.1,2,2.1c1.1,0,2-0.9,2-2.1
	C313.5,71.5,312.6,70.6,311.4,70.6z M311.4,61c-1.1,0-1.9,0.9-1.9,2c0,1.1,0.9,2,1.9,2c1.1,0,1.9-0.9,1.9-2
	C313.4,61.9,312.5,61,311.4,61z M311.4,51.3c-1,0-1.9,0.8-1.9,1.9c0,1,0.8,1.9,1.9,1.9c1,0,1.9-0.9,1.9-1.9
	C313.3,52.2,312.5,51.3,311.4,51.3z M311.4,41.7c-1,0-1.8,0.8-1.8,1.8c0,1,0.8,1.8,1.8,1.8c1,0,1.8-0.8,1.8-1.8
	C313.2,42.5,312.4,41.7,311.4,41.7z M311.4,32.1c-1,0-1.7,0.8-1.7,1.7c0,1,0.8,1.8,1.7,1.8c1,0,1.7-0.8,1.7-1.8
	C313.2,32.9,312.4,32.1,311.4,32.1z M311.4,22.5c-0.9,0-1.7,0.7-1.7,1.7c0,0.9,0.7,1.7,1.7,1.7c0.9,0,1.7-0.8,1.7-1.7
	C313.1,23.2,312.4,22.5,311.4,22.5z M311.4,12.9c-0.9,0-1.6,0.7-1.6,1.6c0,0.9,0.7,1.6,1.6,1.6c0.9,0,1.6-0.7,1.6-1.6
	C313,13.6,312.3,12.9,311.4,12.9z M311.4,3.2c-0.8,0-1.5,0.7-1.5,1.5c0,0.8,0.7,1.5,1.5,1.5c0.8,0,1.5-0.7,1.5-1.5
	C313,3.9,312.3,3.2,311.4,3.2z M301.9,89.8c-1.3,0-2.2,1-2.2,2.3c0,1.3,1,2.3,2.2,2.3c1.2,0,2.2-1,2.2-2.3
	C304.1,90.8,303.1,89.8,301.9,89.8z M301.9,80.1c-1.2,0-2.2,1-2.2,2.2c0,1.2,1,2.2,2.2,2.2c1.2,0,2.2-1,2.2-2.2
	C304,81.1,303.1,80.1,301.9,80.1z M301.9,70.6c-1.1,0-2.1,0.9-2.1,2.1c0,1.2,1,2.1,2.1,2.1c1.2,0,2.1-0.9,2.1-2.1
	C304,71.5,303,70.6,301.9,70.6z M301.9,60.9c-1.1,0-2,0.9-2,2.1c0,1.1,0.9,2,2,2c1.1,0,2-0.9,2-2C303.9,61.8,303,60.9,301.9,60.9z
	 M301.9,51.3c-1.1,0-1.9,0.9-1.9,2c0,1.1,0.8,1.9,1.9,1.9c1.1,0,1.9-0.9,1.9-1.9C303.8,52.2,302.9,51.3,301.9,51.3z M301.9,41.7
	c-1,0-1.8,0.8-1.8,1.9c0,1,0.8,1.9,1.8,1.9c1,0,1.9-0.8,1.9-1.9C303.7,42.5,302.9,41.7,301.9,41.7z M301.9,32.1
	c-1,0-1.7,0.8-1.7,1.8c0,1,0.8,1.8,1.7,1.8c1,0,1.8-0.8,1.8-1.8C303.6,32.9,302.8,32.1,301.9,32.1z M301.9,22.5
	c-0.9,0-1.7,0.8-1.7,1.7c0,1,0.8,1.7,1.7,1.7c0.9,0,1.7-0.8,1.7-1.7C303.6,23.2,302.8,22.5,301.9,22.5z M301.9,12.9
	c-0.9,0-1.6,0.7-1.6,1.6c0,0.9,0.7,1.6,1.6,1.6c0.9,0,1.6-0.7,1.6-1.6C303.5,13.6,302.8,12.9,301.9,12.9z M301.9,3.2
	c-0.8,0-1.5,0.7-1.5,1.5c0,0.8,0.7,1.5,1.5,1.5c0.8,0,1.5-0.7,1.5-1.5C303.4,3.9,302.7,3.2,301.9,3.2z M292.3,89.7
	c-1.3,0-2.3,1.1-2.3,2.4c0,1.3,1.1,2.4,2.3,2.4c1.3,0,2.3-1.1,2.3-2.4C294.6,90.7,293.6,89.7,292.3,89.7z M292.3,80.1
	c-1.2,0-2.2,1-2.2,2.3c0,1.2,1,2.2,2.2,2.2c1.2,0,2.3-1,2.3-2.2C294.5,81.1,293.5,80.1,292.3,80.1z M292.3,70.5
	c-1.2,0-2.1,1-2.1,2.2c0,1.2,1,2.2,2.1,2.2c1.2,0,2.1-1,2.1-2.2C294.4,71.5,293.5,70.5,292.3,70.5z M292.3,60.9c-1.1,0-2,0.9-2,2.1
	c0,1.2,0.9,2.1,2,2.1c1.1,0,2.1-0.9,2.1-2.1C294.3,61.8,293.4,60.9,292.3,60.9z M292.3,51.3c-1.1,0-2,0.9-2,2c0,1.1,0.9,2,2,2
	c1.1,0,2-0.9,2-2C294.3,52.1,293.4,51.3,292.3,51.3z M292.3,41.6c-1,0-1.9,0.8-1.9,1.9c0,1.1,0.8,1.9,1.9,1.9c1.1,0,1.9-0.8,1.9-1.9
	C294.2,42.5,293.3,41.6,292.3,41.6z M292.3,32c-1,0-1.8,0.8-1.8,1.8c0,1,0.8,1.8,1.8,1.8c1,0,1.8-0.8,1.8-1.8
	C294.1,32.9,293.3,32,292.3,32z M292.3,22.4c-0.9,0-1.7,0.8-1.7,1.7c0,1,0.8,1.7,1.7,1.7c1,0,1.7-0.8,1.7-1.7
	C294,23.2,293.2,22.4,292.3,22.4z M292.3,12.8c-0.9,0-1.6,0.7-1.6,1.6c0,0.9,0.7,1.7,1.6,1.7c0.9,0,1.6-0.8,1.6-1.7
	C293.9,13.6,293.2,12.8,292.3,12.8z M292.3,3.2c-0.8,0-1.5,0.7-1.5,1.5c0,0.8,0.7,1.5,1.5,1.5c0.8,0,1.5-0.7,1.5-1.5
	C293.8,3.9,293.1,3.2,292.3,3.2z M282.7,89.6c-1.3,0-2.4,1.1-2.4,2.4c0,1.3,1.1,2.4,2.4,2.4c1.4,0,2.4-1.1,2.4-2.4
	C285.1,90.7,284.1,89.6,282.7,89.6z M282.7,80c-1.3,0-2.3,1-2.3,2.4c0,1.3,1,2.3,2.3,2.3c1.3,0,2.3-1.1,2.3-2.3
	C285,81,284,80,282.7,80z M282.7,70.4c-1.2,0-2.2,1-2.2,2.2c0,1.3,1,2.2,2.2,2.2c1.2,0,2.2-1,2.2-2.2
	C284.9,71.4,283.9,70.4,282.7,70.4z M282.7,60.8c-1.2,0-2.1,1-2.1,2.1c0,1.2,1,2.2,2.1,2.2c1.2,0,2.1-1,2.1-2.2
	C284.8,61.8,283.9,60.8,282.7,60.8z M282.7,51.2c-1.1,0-2,0.9-2,2.1c0,1.1,0.9,2.1,2,2.1c1.1,0,2-0.9,2-2.1
	C284.7,52.1,283.8,51.2,282.7,51.2z M282.7,41.6c-1.1,0-1.9,0.9-1.9,1.9c0,1.1,0.9,2,1.9,2c1.1,0,1.9-0.9,1.9-2
	C284.6,42.5,283.8,41.6,282.7,41.6z M282.7,32c-1,0-1.8,0.8-1.8,1.8c0,1,0.8,1.9,1.8,1.9c1,0,1.8-0.8,1.8-1.9
	C284.5,32.8,283.7,32,282.7,32z M282.7,22.4c-1,0-1.7,0.8-1.7,1.7c0,1,0.8,1.7,1.7,1.7c1,0,1.7-0.8,1.7-1.7
	C284.4,23.2,283.7,22.4,282.7,22.4z M282.7,12.8c-0.9,0-1.6,0.7-1.6,1.6c0,0.9,0.7,1.7,1.6,1.7c0.9,0,1.6-0.8,1.6-1.7
	C284.4,13.6,283.6,12.8,282.7,12.8z M282.7,3.2c-0.8,0-1.5,0.7-1.5,1.5c0,0.8,0.7,1.5,1.5,1.5c0.8,0,1.5-0.7,1.5-1.5
	C284.2,3.9,283.5,3.2,282.7,3.2z M273.1,89.5c-1.4,0-2.5,1.1-2.5,2.5c0,1.4,1.1,2.5,2.5,2.5c1.4,0,2.5-1.1,2.5-2.5
	C275.6,90.6,274.5,89.5,273.1,89.5z M273.1,79.9c-1.3,0-2.4,1.1-2.4,2.4c0,1.3,1.1,2.4,2.4,2.4c1.3,0,2.4-1.1,2.4-2.4
	C275.5,81,274.5,79.9,273.1,79.9z M273.1,70.3c-1.3,0-2.3,1-2.3,2.3c0,1.3,1,2.3,2.3,2.3c1.2,0,2.3-1,2.3-2.3
	C275.4,71.4,274.4,70.3,273.1,70.3z M273.1,60.8c-1.2,0-2.2,1-2.2,2.2c0,1.2,1,2.2,2.2,2.2c1.2,0,2.2-1,2.2-2.2
	C275.3,61.7,274.3,60.8,273.1,60.8z M273.1,51.2c-1.2,0-2.1,0.9-2.1,2.1c0,1.2,0.9,2.1,2.1,2.1c1.1,0,2.1-1,2.1-2.1
	C275.2,52.1,274.3,51.2,273.1,51.2z M273.1,41.6c-1.1,0-2,0.9-2,2c0,1.1,0.9,2,2,2c1.1,0,1.9-0.9,1.9-2
	C275.1,42.5,274.2,41.6,273.1,41.6z M273.1,32c-1,0-1.9,0.8-1.9,1.9c0,1,0.8,1.9,1.9,1.9c1,0,1.9-0.8,1.9-1.9
	C275,32.8,274.2,32,273.1,32z M273.1,22.4c-1,0-1.8,0.8-1.8,1.8c0,1,0.8,1.8,1.8,1.8c1,0,1.7-0.8,1.7-1.8
	C274.9,23.2,274.1,22.4,273.1,22.4z M273.1,12.8c-0.9,0-1.7,0.8-1.7,1.7c0,1,0.7,1.7,1.7,1.7c0.9,0,1.6-0.7,1.6-1.7
	C274.8,13.6,274,12.8,273.1,12.8z M273.1,3.2c-0.9,0-1.6,0.7-1.6,1.6c0,0.8,0.7,1.6,1.6,1.6c0.8,0,1.5-0.7,1.5-1.6
	C274.7,3.9,274,3.2,273.1,3.2z M263.5,89.5c-1.4,0-2.6,1.2-2.6,2.6c0,1.4,1.2,2.6,2.6,2.6c1.4,0,2.6-1.2,2.6-2.6
	C266.1,90.6,265,89.5,263.5,89.5z M263.5,79.8c-1.3,0-2.4,1.2-2.4,2.5c0,1.4,1.1,2.5,2.4,2.5c1.4,0,2.5-1.1,2.5-2.5
	C266,81,264.9,79.8,263.5,79.8z M263.5,70.3c-1.3,0-2.3,1.1-2.3,2.4c0,1.3,1.1,2.4,2.3,2.4c1.3,0,2.4-1.1,2.4-2.4
	C265.9,71.3,264.8,70.3,263.5,70.3z M263.5,60.7c-1.2,0-2.2,1-2.2,2.2c0,1.3,1,2.3,2.2,2.3c1.3,0,2.2-1,2.2-2.3
	C265.8,61.7,264.8,60.7,263.5,60.7z M263.5,51.1c-1.2,0-2.1,1-2.1,2.2c0,1.2,0.9,2.1,2.1,2.1c1.2,0,2.1-1,2.1-2.1
	C265.7,52.1,264.7,51.1,263.5,51.1z M263.5,41.5c-1.1,0-2,0.9-2,2c0,1.1,0.9,2,2,2c1.1,0,2-0.9,2-2
	C265.6,42.4,264.7,41.5,263.5,41.5z M263.5,31.9c-1,0-1.9,0.9-1.9,1.9c0,1.1,0.8,1.9,1.9,1.9c1.1,0,1.9-0.8,1.9-1.9
	C265.5,32.8,264.6,31.9,263.5,31.9z M263.5,22.4c-1,0-1.8,0.8-1.8,1.8c0,1,0.8,1.8,1.8,1.8c1,0,1.8-0.8,1.8-1.8
	C265.3,23.2,264.5,22.4,263.5,22.4z M263.5,12.8c-0.9,0-1.6,0.8-1.6,1.7c0,1,0.7,1.7,1.6,1.7c0.9,0,1.7-0.7,1.7-1.7
	C265.2,13.6,264.5,12.8,263.5,12.8z M263.5,3.2c-0.8,0-1.5,0.7-1.5,1.6c0,0.8,0.7,1.6,1.5,1.6c0.9,0,1.6-0.7,1.6-1.6
	C265.1,3.9,264.4,3.2,263.5,3.2z M254,89.4c-1.5,0-2.7,1.2-2.7,2.7c0,1.5,1.2,2.7,2.7,2.7c1.5,0,2.7-1.2,2.7-2.7
	C256.6,90.6,255.4,89.4,254,89.4z M254,79.8c-1.4,0-2.5,1.2-2.5,2.6c0,1.4,1.2,2.5,2.5,2.5c1.4,0,2.5-1.1,2.5-2.5
	C256.5,80.9,255.4,79.8,254,79.8z M254,70.2c-1.3,0-2.4,1.1-2.4,2.4c0,1.4,1.1,2.5,2.4,2.5c1.3,0,2.4-1.1,2.4-2.5
	C256.4,71.3,255.3,70.2,254,70.2z M254,60.6c-1.3,0-2.3,1-2.3,2.3c0,1.3,1,2.3,2.3,2.3c1.3,0,2.3-1,2.3-2.3
	C256.3,61.7,255.2,60.6,254,60.6z M254,51.1c-1.2,0-2.2,1-2.2,2.2c0,1.2,1,2.2,2.2,2.2c1.2,0,2.2-1,2.2-2.2
	C256.1,52.1,255.2,51.1,254,51.1z M254,41.5c-1.1,0-2,0.9-2,2.1c0,1.2,0.9,2.1,2,2.1c1.1,0,2.1-0.9,2.1-2.1
	C256,42.4,255.1,41.5,254,41.5z M254,31.9c-1,0-1.9,0.9-1.9,1.9c0,1.1,0.9,1.9,1.9,1.9c1.1,0,1.9-0.9,1.9-1.9
	C255.9,32.8,255,31.9,254,31.9z M254,22.3c-1,0-1.8,0.8-1.8,1.8c0,1,0.8,1.8,1.8,1.8c1,0,1.8-0.8,1.8-1.8
	C255.8,23.1,255,22.3,254,22.3z M254,12.8c-0.9,0-1.7,0.8-1.7,1.7c0,1,0.7,1.7,1.7,1.7c0.9,0,1.7-0.8,1.7-1.7
	C255.6,13.5,254.9,12.8,254,12.8z M254,3.2c-0.9,0-1.5,0.7-1.5,1.6c0,0.9,0.7,1.6,1.5,1.6c0.9,0,1.6-0.7,1.6-1.6
	C255.5,3.9,254.8,3.2,254,3.2z M244.4,89.3c-1.5,0-2.8,1.3-2.8,2.8c0,1.5,1.2,2.8,2.8,2.8c1.5,0,2.7-1.2,2.7-2.8
	C247.1,90.5,245.9,89.3,244.4,89.3z M244.4,79.7c-1.4,0-2.6,1.2-2.6,2.6c0,1.4,1.2,2.6,2.6,2.6c1.4,0,2.6-1.2,2.6-2.6
	C247,80.9,245.8,79.7,244.4,79.7z M244.4,70.1c-1.4,0-2.5,1.1-2.5,2.5c0,1.4,1.1,2.5,2.5,2.5c1.4,0,2.5-1.1,2.5-2.5
	C246.9,71.3,245.8,70.1,244.4,70.1z M244.4,60.6c-1.3,0-2.3,1.1-2.3,2.4c0,1.3,1,2.4,2.3,2.4c1.3,0,2.3-1.1,2.3-2.4
	C246.7,61.6,245.7,60.6,244.4,60.6z M244.4,51c-1.2,0-2.2,1-2.2,2.2c0,1.2,1,2.3,2.2,2.3c1.2,0,2.2-1,2.2-2.3
	C246.6,52,245.6,51,244.4,51z M244.4,41.4c-1.2,0-2.1,1-2.1,2.1c0,1.2,0.9,2.1,2.1,2.1c1.1,0,2.1-1,2.1-2.1
	C246.5,42.4,245.5,41.4,244.4,41.4z M244.4,31.9c-1.1,0-2,0.9-2,2c0,1.1,0.9,2,2,2c1.1,0,1.9-0.9,1.9-2
	C246.3,32.8,245.5,31.9,244.4,31.9z M244.4,22.3c-1,0-1.8,0.8-1.8,1.9c0,1,0.8,1.9,1.8,1.9c1,0,1.8-0.8,1.8-1.9
	C246.2,23.1,245.4,22.3,244.4,22.3z M244.4,12.7c-1,0-1.7,0.8-1.7,1.7c0,1,0.8,1.7,1.7,1.7c0.9,0,1.7-0.8,1.7-1.7
	C246.1,13.5,245.3,12.7,244.4,12.7z M244.4,3.2c-0.9,0-1.6,0.7-1.6,1.6c0,0.9,0.7,1.6,1.6,1.6c0.8,0,1.6-0.7,1.6-1.6
	C246,3.9,245.2,3.2,244.4,3.2z M234.8,89.2c-1.5,0-2.8,1.3-2.8,2.8c0,1.6,1.3,2.9,2.8,2.9c1.6,0,2.8-1.3,2.8-2.9
	C237.6,90.5,236.4,89.2,234.8,89.2z M234.8,79.6c-1.5,0-2.7,1.2-2.7,2.7c0,1.5,1.2,2.7,2.7,2.7c1.5,0,2.7-1.2,2.7-2.7
	C237.5,80.8,236.3,79.6,234.8,79.6z M234.8,70.1c-1.4,0-2.5,1.2-2.5,2.6c0,1.4,1.1,2.6,2.5,2.6c1.4,0,2.5-1.2,2.5-2.6
	C237.3,71.2,236.2,70.1,234.8,70.1z M234.8,60.5c-1.3,0-2.4,1.1-2.4,2.4c0,1.4,1.1,2.4,2.4,2.4c1.3,0,2.4-1.1,2.4-2.4
	C237.2,61.6,236.1,60.5,234.8,60.5z M234.8,51c-1.2,0-2.3,1-2.3,2.3c0,1.3,1,2.3,2.3,2.3c1.3,0,2.3-1,2.3-2.3
	C237.1,52,236.1,51,234.8,51z M234.8,41.4c-1.2,0-2.1,1-2.1,2.2c0,1.2,1,2.1,2.1,2.1c1.2,0,2.2-1,2.2-2.1
	C237,42.3,236,41.4,234.8,41.4z M234.8,31.9c-1.1,0-2,0.9-2,2c0,1.1,0.9,2,2,2c1.1,0,2-0.9,2-2C236.8,32.8,235.9,31.9,234.8,31.9z
	 M234.8,22.3c-1,0-1.8,0.8-1.8,1.9c0,1,0.8,1.9,1.8,1.9c1,0,1.9-0.8,1.9-1.9C236.7,23.1,235.8,22.3,234.8,22.3z M234.8,12.7
	c-0.9,0-1.7,0.8-1.7,1.7c0,1,0.8,1.7,1.7,1.7c1,0,1.7-0.8,1.7-1.7C236.5,13.5,235.8,12.7,234.8,12.7z M234.8,3.2
	c-0.9,0-1.6,0.7-1.6,1.6c0,0.9,0.7,1.6,1.6,1.6c0.9,0,1.6-0.7,1.6-1.6C236.4,3.9,235.7,3.2,234.8,3.2z M225.2,89.1
	c-1.6,0-2.9,1.3-2.9,3c0,1.6,1.3,2.9,2.9,2.9c1.6,0,2.9-1.3,2.9-2.9C228.1,90.4,226.8,89.1,225.2,89.1z M225.2,79.6
	c-1.5,0-2.8,1.2-2.8,2.8c0,1.5,1.2,2.8,2.8,2.8c1.5,0,2.8-1.2,2.8-2.8C228,80.8,226.8,79.6,225.2,79.6z M225.2,70
	c-1.4,0-2.6,1.2-2.6,2.6c0,1.5,1.2,2.6,2.6,2.6c1.4,0,2.6-1.2,2.6-2.6C227.8,71.2,226.7,70,225.2,70z M225.2,60.5
	c-1.3,0-2.4,1.1-2.4,2.5c0,1.4,1.1,2.5,2.4,2.5c1.4,0,2.5-1.1,2.5-2.5C227.7,61.6,226.6,60.5,225.2,60.5z M225.2,50.9
	c-1.3,0-2.3,1-2.3,2.3c0,1.3,1,2.3,2.3,2.3c1.3,0,2.3-1,2.3-2.3C227.5,52,226.5,50.9,225.2,50.9z M225.2,41.4c-1.2,0-2.2,1-2.2,2.2
	c0,1.2,1,2.2,2.2,2.2c1.2,0,2.2-1,2.2-2.2C227.4,42.3,226.4,41.4,225.2,41.4z M225.2,31.8c-1.1,0-2,0.9-2,2.1c0,1.1,0.9,2.1,2,2.1
	c1.1,0,2-0.9,2-2.1C227.3,32.7,226.4,31.8,225.2,31.8z M225.2,22.3c-1,0-1.9,0.8-1.9,1.9c0,1.1,0.8,1.9,1.9,1.9
	c1.1,0,1.9-0.8,1.9-1.9C227.1,23.1,226.3,22.3,225.2,22.3z M225.2,12.7c-1,0-1.7,0.8-1.7,1.7c0,1,0.8,1.8,1.7,1.8
	c1,0,1.7-0.8,1.7-1.8C227,13.5,226.2,12.7,225.2,12.7z M225.2,3.2c-0.9,0-1.6,0.7-1.6,1.6c0,0.9,0.7,1.6,1.6,1.6
	c0.9,0,1.6-0.7,1.6-1.6C226.8,3.9,226.1,3.2,225.2,3.2z M215.6,89c-1.6,0-3,1.4-3,3c0,1.7,1.3,3,3,3c1.6,0,3-1.4,3-3
	C218.6,90.4,217.3,89,215.6,89z M215.6,79.5c-1.6,0-2.8,1.3-2.8,2.9c0,1.5,1.3,2.8,2.8,2.8c1.6,0,2.8-1.3,2.8-2.8
	C218.5,80.8,217.2,79.5,215.6,79.5z M215.6,69.9c-1.5,0-2.7,1.2-2.7,2.7c0,1.5,1.2,2.7,2.7,2.7c1.5,0,2.7-1.2,2.7-2.7
	C218.3,71.1,217.1,69.9,215.6,69.9z M215.6,60.4c-1.4,0-2.5,1.2-2.5,2.5c0,1.4,1.1,2.6,2.5,2.6c1.4,0,2.5-1.1,2.5-2.6
	C218.2,61.6,217,60.4,215.6,60.4z M215.6,50.9c-1.3,0-2.3,1.1-2.3,2.4c0,1.3,1,2.4,2.3,2.4c1.3,0,2.4-1.1,2.4-2.4
	C218,51.9,217,50.9,215.6,50.9z M215.7,41.3c-1.2,0-2.2,1-2.2,2.2c0,1.2,1,2.2,2.2,2.2c1.2,0,2.2-1,2.2-2.2
	C217.9,42.3,216.9,41.3,215.7,41.3z M215.7,31.8c-1.1,0-2.1,0.9-2.1,2.1c0,1.2,0.9,2.1,2.1,2.1c1.1,0,2-0.9,2-2.1
	C217.7,32.7,216.8,31.8,215.7,31.8z M215.7,22.2c-1.1,0-1.9,0.8-1.9,1.9c0,1.1,0.9,1.9,1.9,1.9c1,0,1.9-0.9,1.9-1.9
	C217.5,23.1,216.7,22.2,215.7,22.2z M215.7,12.7c-1,0-1.7,0.8-1.7,1.7c0,1,0.8,1.8,1.7,1.8c1,0,1.7-0.8,1.7-1.8
	C217.4,13.5,216.6,12.7,215.7,12.7z M215.7,3.2c-0.9,0-1.6,0.7-1.6,1.6c0,0.9,0.7,1.6,1.6,1.6c0.9,0,1.6-0.7,1.6-1.6
	C217.2,3.9,216.5,3.2,215.7,3.2z M206.1,88.9c-1.7,0-3.1,1.4-3.1,3.1c0,1.7,1.4,3.1,3.1,3.1c1.7,0,3.1-1.4,3.1-3.1
	C209.1,90.3,207.8,88.9,206.1,88.9z M206.1,79.4c-1.6,0-2.9,1.3-2.9,3c0,1.6,1.3,2.9,2.9,2.9c1.6,0,2.9-1.3,2.9-2.9
	C209,80.7,207.7,79.4,206.1,79.4z M206.1,69.9c-1.5,0-2.7,1.2-2.7,2.8c0,1.5,1.2,2.8,2.7,2.8c1.5,0,2.7-1.2,2.7-2.8
	C208.8,71.1,207.6,69.9,206.1,69.9z M206.1,60.3c-1.4,0-2.6,1.2-2.6,2.6c0,1.5,1.2,2.6,2.6,2.6c1.4,0,2.6-1.2,2.6-2.6
	C208.6,61.5,207.5,60.3,206.1,60.3z M206.1,50.8c-1.3,0-2.4,1.1-2.4,2.4c0,1.3,1.1,2.4,2.4,2.4c1.3,0,2.4-1.1,2.4-2.4
	C208.5,51.9,207.4,50.8,206.1,50.8z M206.1,41.3c-1.3,0-2.2,1-2.2,2.3c0,1.3,1,2.3,2.2,2.3c1.2,0,2.3-1,2.3-2.3
	C208.3,42.3,207.3,41.3,206.1,41.3z M206.1,31.7c-1.2,0-2.1,0.9-2.1,2.1c0,1.2,0.9,2.1,2.1,2.1c1.2,0,2.1-1,2.1-2.1
	C208.2,32.7,207.2,31.7,206.1,31.7z M206.1,22.2c-1.1,0-1.9,0.9-1.9,1.9c0,1.1,0.9,1.9,1.9,1.9c1.1,0,1.9-0.8,1.9-1.9
	C208,23.1,207.1,22.2,206.1,22.2z M206.1,12.7c-1,0-1.8,0.8-1.8,1.8c0,1,0.8,1.8,1.8,1.8c1,0,1.8-0.8,1.8-1.8
	C207.8,13.5,207,12.7,206.1,12.7z M206.1,3.1c-0.9,0-1.6,0.7-1.6,1.6c0,0.9,0.7,1.6,1.6,1.6c0.9,0,1.6-0.8,1.6-1.6
	C207.7,3.9,207,3.1,206.1,3.1z M185.3,4.9c0,0.9,0.7,1.6,1.6,1.6c0.9,0,1.6-0.7,1.6-1.6c0-0.9-0.7-1.6-1.6-1.6
	C186,3.3,185.3,4,185.3,4.9z M175.7,4.9c0,0.9,0.7,1.6,1.6,1.6c0.9,0,1.6-0.7,1.6-1.6c0-0.9-0.7-1.6-1.6-1.6
	C176.4,3.3,175.7,4,175.7,4.9z M166.1,4.9c0,0.9,0.7,1.6,1.6,1.6c0.9,0,1.6-0.7,1.6-1.6c0-0.9-0.7-1.6-1.6-1.6
	C166.8,3.3,166.1,4,166.1,4.9z M156.5,4.9c0,0.9,0.7,1.6,1.6,1.6c0.9,0,1.6-0.7,1.6-1.6c0-0.8-0.7-1.6-1.6-1.6
	C157.2,3.3,156.5,4.1,156.5,4.9z M147,4.9c0,0.9,0.7,1.6,1.6,1.6c0.9,0,1.6-0.7,1.6-1.6c0-0.8-0.7-1.6-1.6-1.6
	C147.7,3.3,147,4.1,147,4.9z M137.4,4.9c0,0.9,0.7,1.6,1.5,1.6c0.9,0,1.6-0.7,1.6-1.6c0-0.8-0.7-1.5-1.6-1.5
	C138.1,3.4,137.4,4.1,137.4,4.9z M127.8,4.9c0,0.9,0.7,1.6,1.5,1.6c0.9,0,1.6-0.7,1.6-1.6c0-0.8-0.7-1.5-1.6-1.5
	C128.5,3.4,127.8,4.1,127.8,4.9z M118.2,4.9c0,0.9,0.7,1.6,1.5,1.6c0.9,0,1.5-0.7,1.5-1.6c0-0.8-0.7-1.5-1.5-1.5
	C118.9,3.4,118.2,4.1,118.2,4.9z M108.6,4.9c0,0.9,0.7,1.5,1.5,1.5c0.8,0,1.5-0.7,1.5-1.5c0-0.8-0.7-1.5-1.5-1.5
	C109.3,3.4,108.6,4.1,108.6,4.9z M99.1,4.9c0,0.9,0.7,1.5,1.5,1.5c0.8,0,1.5-0.7,1.5-1.5c0-0.8-0.7-1.5-1.5-1.5
	C99.8,3.4,99.1,4.1,99.1,4.9z M89.5,4.9c0,0.9,0.7,1.5,1.5,1.5c0.8,0,1.5-0.7,1.5-1.5c0-0.8-0.7-1.5-1.5-1.5
	C90.2,3.4,89.5,4.1,89.5,4.9z M79.9,4.9c0,0.8,0.7,1.5,1.5,1.5c0.8,0,1.5-0.7,1.5-1.5c0-0.8-0.7-1.5-1.5-1.5
	C80.6,3.4,79.9,4.1,79.9,4.9z M70.3,4.9c0,0.8,0.7,1.5,1.5,1.5c0.8,0,1.5-0.7,1.5-1.5c0-0.8-0.7-1.5-1.5-1.5
	C71,3.4,70.3,4.1,70.3,4.9z M60.7,4.9c0,0.8,0.7,1.5,1.5,1.5c0.8,0,1.5-0.7,1.5-1.5c0-0.8-0.7-1.5-1.5-1.5
	C61.4,3.4,60.7,4.1,60.7,4.9z M51.2,4.9c0,0.8,0.7,1.5,1.5,1.5c0.8,0,1.5-0.7,1.5-1.5c0-0.8-0.7-1.5-1.5-1.5
	C51.8,3.4,51.2,4.1,51.2,4.9z M41.6,4.9c0,0.8,0.7,1.5,1.5,1.5c0.8,0,1.5-0.6,1.5-1.5c0-0.8-0.6-1.5-1.5-1.5
	C42.3,3.5,41.6,4.1,41.6,4.9z M32,4.9c0,0.8,0.7,1.5,1.5,1.5c0.8,0,1.5-0.6,1.5-1.5c0-0.8-0.7-1.5-1.5-1.5C32.7,3.5,32,4.1,32,4.9z
	 M22.4,4.9c0,0.8,0.6,1.5,1.5,1.5c0.8,0,1.5-0.6,1.5-1.5c0-0.8-0.7-1.5-1.5-1.5C23.1,3.5,22.4,4.1,22.4,4.9z M12.8,4.9
	c0,0.8,0.6,1.5,1.5,1.5c0.8,0,1.4-0.6,1.4-1.5c0-0.8-0.6-1.5-1.4-1.5C13.5,3.5,12.8,4.1,12.8,4.9z M3.3,4.9c0,0.8,0.6,1.5,1.4,1.5
	c0.8,0,1.4-0.6,1.4-1.5c0-0.8-0.6-1.4-1.4-1.4C3.9,3.5,3.3,4.1,3.3,4.9z M185.1,14.6c0,1,0.8,1.8,1.8,1.8c1,0,1.8-0.8,1.8-1.8
	c0-1-0.8-1.8-1.8-1.8C185.9,12.9,185.1,13.6,185.1,14.6z M175.5,14.6c0,1,0.8,1.8,1.7,1.8c1,0,1.7-0.8,1.7-1.8c0-1-0.8-1.8-1.7-1.8
	C176.3,12.9,175.5,13.6,175.5,14.6z M166,14.6c0,1,0.8,1.7,1.7,1.7c1,0,1.7-0.8,1.7-1.7c0-1-0.8-1.7-1.7-1.7
	C166.7,12.9,166,13.7,166,14.6z M156.4,14.6c0,1,0.8,1.7,1.7,1.7c1,0,1.7-0.8,1.7-1.7c0-1-0.8-1.7-1.7-1.7
	C157.2,12.9,156.4,13.7,156.4,14.6z M146.8,14.6c0,1,0.8,1.7,1.7,1.7c0.9,0,1.7-0.8,1.7-1.7c0-1-0.8-1.7-1.7-1.7
	C147.6,12.9,146.8,13.7,146.8,14.6z M137.3,14.6c0,1,0.7,1.7,1.7,1.7c0.9,0,1.7-0.7,1.7-1.7c0-0.9-0.8-1.7-1.7-1.7
	C138,12.9,137.3,13.7,137.3,14.6z M127.7,14.6c0,0.9,0.7,1.7,1.7,1.7c0.9,0,1.7-0.8,1.7-1.7c0-0.9-0.7-1.7-1.7-1.7
	C128.4,13,127.7,13.7,127.7,14.6z M118.1,14.6c0,0.9,0.7,1.7,1.6,1.7c0.9,0,1.7-0.8,1.7-1.7c0-0.9-0.7-1.7-1.7-1.7
	C118.9,13,118.1,13.7,118.1,14.6z M108.5,14.6c0,0.9,0.7,1.7,1.6,1.7c0.9,0,1.6-0.8,1.6-1.7c0-0.9-0.7-1.7-1.6-1.7
	C109.3,13,108.5,13.7,108.5,14.6z M99,14.6c0,0.9,0.7,1.6,1.6,1.6c0.9,0,1.6-0.7,1.6-1.6c0-0.9-0.7-1.6-1.6-1.6
	C99.7,13,99,13.7,99,14.6z M89.4,14.6c0,0.9,0.7,1.6,1.6,1.6c0.9,0,1.6-0.7,1.6-1.6c0-0.9-0.7-1.6-1.6-1.6
	C90.1,13,89.4,13.7,89.4,14.6z M79.8,14.6c0,0.9,0.7,1.6,1.6,1.6c0.9,0,1.6-0.7,1.6-1.6c0-0.9-0.7-1.6-1.6-1.6
	C80.5,13,79.8,13.7,79.8,14.6z M70.3,14.6c0,0.9,0.7,1.6,1.6,1.6c0.9,0,1.6-0.7,1.6-1.6c0-0.9-0.7-1.6-1.6-1.6
	C71,13,70.3,13.7,70.3,14.6z M60.7,14.6c0,0.9,0.7,1.6,1.6,1.6c0.8,0,1.5-0.7,1.5-1.6c0-0.8-0.7-1.5-1.5-1.5
	C61.4,13.1,60.7,13.8,60.7,14.6z M51.1,14.6c0,0.8,0.7,1.5,1.5,1.5c0.8,0,1.5-0.7,1.5-1.5c0-0.8-0.7-1.5-1.5-1.5
	C51.8,13.1,51.1,13.8,51.1,14.6z M41.6,14.6c0,0.8,0.7,1.5,1.5,1.5c0.8,0,1.5-0.7,1.5-1.5c0-0.8-0.7-1.5-1.5-1.5
	C42.2,13.1,41.6,13.8,41.6,14.6z M32,14.6c0,0.8,0.7,1.5,1.5,1.5c0.8,0,1.5-0.7,1.5-1.5c0-0.8-0.7-1.5-1.5-1.5
	C32.6,13.1,32,13.8,32,14.6z M22.4,14.6c0,0.8,0.7,1.5,1.5,1.5c0.8,0,1.5-0.7,1.5-1.5c0-0.8-0.7-1.5-1.5-1.5
	C23.1,13.1,22.4,13.8,22.4,14.6z M12.8,14.6c0,0.8,0.7,1.5,1.5,1.5c0.8,0,1.5-0.7,1.5-1.5c0-0.8-0.6-1.5-1.5-1.5
	C13.5,13.1,12.8,13.8,12.8,14.6z M3.3,14.6c0,0.8,0.6,1.5,1.5,1.5c0.8,0,1.4-0.6,1.4-1.5c0-0.8-0.6-1.5-1.4-1.5
	C3.9,13.2,3.3,13.8,3.3,14.6z M185,24.3c0,1.1,0.9,2,1.9,2c1.1,0,1.9-0.9,1.9-2c0-1.1-0.9-1.9-1.9-1.9C185.8,22.4,185,23.2,185,24.3
	z M175.4,24.3c0,1.1,0.9,1.9,1.9,1.9c1.1,0,1.9-0.9,1.9-1.9c0-1-0.9-1.9-1.9-1.9C176.3,22.4,175.4,23.3,175.4,24.3z M165.8,24.3
	c0,1.1,0.8,1.9,1.9,1.9c1,0,1.9-0.8,1.9-1.9c0-1-0.8-1.9-1.9-1.9C166.7,22.4,165.8,23.3,165.8,24.3z M156.3,24.3
	c0,1,0.8,1.9,1.9,1.9c1,0,1.9-0.8,1.9-1.9c0-1-0.8-1.9-1.9-1.9C157.1,22.4,156.3,23.3,156.3,24.3z M146.7,24.3c0,1,0.8,1.9,1.8,1.9
	s1.8-0.8,1.8-1.9c0-1-0.8-1.8-1.8-1.8S146.7,23.3,146.7,24.3z M137.1,24.3c0,1,0.8,1.9,1.8,1.9c1,0,1.8-0.8,1.8-1.9
	c0-1-0.8-1.8-1.8-1.8C138,22.5,137.1,23.3,137.1,24.3z M127.6,24.3c0,1,0.8,1.8,1.8,1.8c1,0,1.8-0.8,1.8-1.8c0-1-0.8-1.8-1.8-1.8
	C128.4,22.5,127.6,23.3,127.6,24.3z M118,24.3c0,1,0.8,1.8,1.7,1.8c1,0,1.8-0.8,1.8-1.8c0-1-0.8-1.7-1.8-1.7
	C118.8,22.6,118,23.3,118,24.3z M108.5,24.3c0,1,0.8,1.8,1.7,1.8c0.9,0,1.7-0.8,1.7-1.8c0-1-0.8-1.7-1.7-1.7
	C109.2,22.6,108.5,23.3,108.5,24.3z M98.9,24.3c0,1,0.8,1.7,1.7,1.7c0.9,0,1.7-0.8,1.7-1.7c0-0.9-0.8-1.7-1.7-1.7
	C99.7,22.6,98.9,23.4,98.9,24.3z M89.3,24.3c0,1,0.7,1.7,1.7,1.7c0.9,0,1.7-0.8,1.7-1.7c0-0.9-0.7-1.7-1.7-1.7
	C90.1,22.6,89.3,23.4,89.3,24.3z M79.8,24.3c0,1,0.7,1.7,1.7,1.7c0.9,0,1.7-0.7,1.7-1.7c0-0.9-0.7-1.7-1.7-1.7
	C80.5,22.6,79.8,23.4,79.8,24.3z M70.2,24.3c0,0.9,0.7,1.7,1.6,1.7c0.9,0,1.6-0.7,1.6-1.7c0-0.9-0.7-1.6-1.6-1.6
	C70.9,22.7,70.2,23.4,70.2,24.3z M60.6,24.3c0,0.9,0.7,1.6,1.6,1.6c0.9,0,1.6-0.7,1.6-1.6c0-0.9-0.7-1.6-1.6-1.6
	C61.4,22.7,60.6,23.4,60.6,24.3z M51.1,24.3c0,0.9,0.7,1.6,1.6,1.6c0.9,0,1.6-0.7,1.6-1.6c0-0.8-0.7-1.6-1.6-1.6
	C51.8,22.7,51.1,23.5,51.1,24.3z M41.5,24.3c0,0.9,0.7,1.6,1.6,1.6c0.8,0,1.5-0.7,1.5-1.6c0-0.8-0.7-1.6-1.5-1.6
	C42.2,22.7,41.5,23.5,41.5,24.3z M31.9,24.3c0,0.9,0.7,1.6,1.5,1.6c0.8,0,1.5-0.7,1.5-1.6c0-0.8-0.7-1.5-1.5-1.5
	C32.6,22.8,31.9,23.5,31.9,24.3z M22.4,24.3c0,0.8,0.7,1.5,1.5,1.5c0.8,0,1.5-0.7,1.5-1.5c0-0.8-0.7-1.5-1.5-1.5
	C23,22.8,22.4,23.5,22.4,24.3z M12.8,24.3c0,0.8,0.7,1.5,1.5,1.5c0.8,0,1.5-0.7,1.5-1.5c0-0.8-0.7-1.5-1.5-1.5
	C13.5,22.8,12.8,23.5,12.8,24.3z M3.3,24.3c0,0.8,0.6,1.5,1.5,1.5c0.8,0,1.5-0.6,1.5-1.5c0-0.8-0.7-1.5-1.5-1.5
	C3.9,22.8,3.3,23.5,3.3,24.3z M184.8,34c0,1.2,0.9,2.1,2.1,2.1c1.2,0,2.1-1,2.1-2.1c0-1.2-0.9-2.1-2.1-2.1
	C185.7,31.9,184.8,32.8,184.8,34z M175.2,34c0,1.2,0.9,2.1,2.1,2.1c1.1,0,2.1-0.9,2.1-2.1c0-1.1-0.9-2.1-2.1-2.1
	C176.2,31.9,175.2,32.9,175.2,34z M165.7,34c0,1.2,0.9,2.1,2,2.1c1.1,0,2-0.9,2-2.1c0-1.1-0.9-2-2-2C166.6,32,165.7,32.9,165.7,34z
	 M156.1,34c0,1.1,0.9,2,2,2c1.1,0,2-0.9,2-2c0-1.1-0.9-2-2-2C157,32,156.1,32.9,156.1,34z M146.6,34c0,1.1,0.9,2,2,2
	c1.1,0,2-0.9,2-2c0-1.1-0.9-2-2-2C147.5,32,146.6,32.9,146.6,34z M137,34c0,1.1,0.9,1.9,1.9,1.9c1.1,0,1.9-0.8,1.9-1.9
	c0-1.1-0.9-1.9-1.9-1.9C137.9,32.1,137,32.9,137,34z M127.5,34c0,1,0.8,1.9,1.9,1.9c1.1,0,1.9-0.9,1.9-1.9c0-1.1-0.9-1.9-1.9-1.9
	C128.3,32.1,127.5,32.9,127.5,34z M117.9,34c0,1,0.8,1.9,1.9,1.9c1,0,1.9-0.8,1.9-1.9c0-1-0.8-1.9-1.9-1.9
	C118.7,32.1,117.9,33,117.9,34z M108.3,34c0,1,0.8,1.9,1.8,1.9c1,0,1.8-0.8,1.8-1.9c0-1-0.8-1.9-1.8-1.9
	C109.2,32.1,108.3,33,108.3,34z M98.8,34c0,1,0.8,1.8,1.8,1.8c1,0,1.8-0.8,1.8-1.8c0-1-0.8-1.8-1.8-1.8C99.6,32.2,98.8,33,98.8,34z
	 M89.2,34c0,1,0.8,1.8,1.8,1.8c1,0,1.8-0.8,1.8-1.8c0-1-0.8-1.8-1.8-1.8C90,32.2,89.2,33,89.2,34z M79.7,34c0,1,0.8,1.7,1.7,1.7
	c1,0,1.7-0.8,1.7-1.7c0-1-0.8-1.7-1.7-1.7C80.5,32.3,79.7,33,79.7,34z M70.1,34c0,1,0.8,1.7,1.7,1.7c0.9,0,1.7-0.8,1.7-1.7
	c0-1-0.8-1.7-1.7-1.7C70.9,32.3,70.1,33,70.1,34z M60.6,34c0,0.9,0.8,1.7,1.7,1.7c0.9,0,1.7-0.8,1.7-1.7c0-0.9-0.8-1.7-1.7-1.7
	C61.3,32.3,60.6,33.1,60.6,34z M51,34c0,0.9,0.7,1.7,1.6,1.7c0.9,0,1.6-0.8,1.6-1.7c0-0.9-0.7-1.7-1.6-1.7C51.7,32.3,51,33.1,51,34z
	 M41.5,34c0,0.9,0.7,1.6,1.6,1.6c0.9,0,1.6-0.7,1.6-1.6c0-0.9-0.7-1.6-1.6-1.6C42.2,32.4,41.5,33.1,41.5,34z M31.9,34
	c0,0.9,0.7,1.6,1.6,1.6c0.9,0,1.6-0.7,1.6-1.6c0-0.9-0.7-1.6-1.6-1.6C32.6,32.4,31.9,33.1,31.9,34z M22.3,34c0,0.8,0.7,1.6,1.5,1.6
	c0.8,0,1.5-0.7,1.5-1.6c0-0.8-0.7-1.5-1.5-1.5C23,32.5,22.3,33.2,22.3,34z M12.8,34c0,0.8,0.7,1.5,1.5,1.5c0.8,0,1.5-0.7,1.5-1.5
	c0-0.8-0.7-1.5-1.5-1.5C13.5,32.5,12.8,33.2,12.8,34z M3.2,34c0,0.8,0.7,1.5,1.5,1.5c0.8,0,1.5-0.7,1.5-1.5c0-0.8-0.6-1.5-1.5-1.5
	C3.9,32.5,3.2,33.2,3.2,34z M184.6,43.7c0,1.2,1,2.2,2.2,2.2c1.2,0,2.2-1,2.2-2.2c0-1.3-1-2.3-2.2-2.3
	C185.6,41.4,184.6,42.4,184.6,43.7z M175.1,43.7c0,1.3,1,2.2,2.2,2.2c1.2,0,2.2-1,2.2-2.2c0-1.2-1-2.2-2.2-2.2
	C176.1,41.4,175.1,42.5,175.1,43.7z M165.5,43.7c0,1.2,1,2.2,2.2,2.2c1.2,0,2.2-1,2.2-2.2c0-1.2-1-2.2-2.2-2.2
	C166.5,41.5,165.5,42.5,165.5,43.7z M156,43.7c0,1.2,1,2.2,2.1,2.2c1.2,0,2.1-1,2.1-2.2c0-1.2-1-2.1-2.1-2.1
	C156.9,41.5,156,42.5,156,43.7z M146.4,43.7c0,1.2,0.9,2.1,2.1,2.1c1.2,0,2.1-0.9,2.1-2.1c0-1.2-0.9-2.1-2.1-2.1
	C147.4,41.6,146.4,42.5,146.4,43.7z M136.9,43.7c0,1.2,0.9,2.1,2.1,2.1c1.1,0,2.1-0.9,2.1-2.1c0-1.1-0.9-2.1-2.1-2.1
	C137.8,41.6,136.9,42.5,136.9,43.7z M127.4,43.7c0,1.1,0.9,2.1,2,2.1c1.1,0,2-0.9,2-2.1c0-1.1-0.9-2-2-2
	C128.3,41.6,127.4,42.6,127.4,43.7z M117.8,43.7c0,1.1,0.9,2,2,2c1.1,0,2-0.9,2-2c0-1.1-0.9-2-2-2C118.7,41.7,117.8,42.6,117.8,43.7
	z M108.3,43.7c0,1.1,0.9,2,1.9,2c1.1,0,1.9-0.9,1.9-2c0-1.1-0.9-1.9-1.9-1.9C109.1,41.8,108.3,42.6,108.3,43.7z M98.7,43.7
	c0,1.1,0.9,1.9,1.9,1.9c1,0,1.9-0.8,1.9-1.9c0-1-0.8-1.9-1.9-1.9C99.6,41.8,98.7,42.7,98.7,43.7z M89.2,43.7c0,1,0.8,1.9,1.8,1.9
	c1,0,1.8-0.8,1.8-1.9c0-1-0.8-1.9-1.8-1.9C90,41.8,89.2,42.7,89.2,43.7z M79.6,43.7c0,1,0.8,1.9,1.8,1.9c1,0,1.8-0.8,1.8-1.9
	c0-1-0.8-1.8-1.8-1.8C80.4,41.9,79.6,42.7,79.6,43.7z M70.1,43.7c0,1,0.8,1.8,1.8,1.8c1,0,1.8-0.8,1.8-1.8c0-1-0.8-1.7-1.8-1.7
	C70.9,41.9,70.1,42.7,70.1,43.7z M60.5,43.7c0,1,0.8,1.7,1.7,1.7c1,0,1.7-0.8,1.7-1.7c0-1-0.8-1.7-1.7-1.7
	C61.3,42,60.5,42.7,60.5,43.7z M51,43.7c0,1,0.8,1.7,1.7,1.7c0.9,0,1.7-0.8,1.7-1.7c0-0.9-0.7-1.7-1.7-1.7C51.7,42,51,42.8,51,43.7z
	 M41.4,43.7c0,0.9,0.7,1.7,1.7,1.7c0.9,0,1.6-0.8,1.6-1.7c0-0.9-0.7-1.6-1.6-1.6C42.2,42,41.4,42.8,41.4,43.7z M31.9,43.7
	c0,0.9,0.7,1.6,1.6,1.6c0.9,0,1.6-0.7,1.6-1.6c0-0.9-0.7-1.6-1.6-1.6C32.6,42.1,31.9,42.8,31.9,43.7z M22.3,43.7
	c0,0.9,0.7,1.6,1.6,1.6c0.9,0,1.5-0.7,1.5-1.6c0-0.8-0.7-1.6-1.5-1.6C23,42.1,22.3,42.8,22.3,43.7z M12.8,43.7
	c0,0.9,0.7,1.5,1.5,1.5c0.8,0,1.5-0.7,1.5-1.5c0-0.8-0.7-1.5-1.5-1.5C13.5,42.2,12.8,42.8,12.8,43.7z M3.2,43.7
	c0,0.8,0.7,1.5,1.5,1.5c0.8,0,1.5-0.6,1.5-1.5c0-0.8-0.7-1.5-1.5-1.5C3.9,42.2,3.2,42.9,3.2,43.7z M184.5,53.4
	c0,1.4,1.1,2.4,2.4,2.4c1.3,0,2.4-1.1,2.4-2.4c0-1.3-1.1-2.4-2.4-2.4C185.5,50.9,184.5,52,184.5,53.4z M174.9,53.4
	c0,1.3,1.1,2.4,2.4,2.4c1.3,0,2.4-1.1,2.4-2.4c0-1.3-1.1-2.4-2.4-2.4C176,51,174.9,52.1,174.9,53.4z M165.4,53.4
	c0,1.3,1,2.4,2.3,2.4c1.3,0,2.3-1.1,2.3-2.4c0-1.3-1-2.3-2.3-2.3C166.4,51,165.4,52.1,165.4,53.4z M155.9,53.4c0,1.3,1,2.3,2.3,2.3
	c1.3,0,2.3-1,2.3-2.3c0-1.2-1-2.3-2.3-2.3C156.9,51.1,155.9,52.1,155.9,53.4z M146.3,53.4c0,1.2,1,2.3,2.2,2.3c1.2,0,2.2-1,2.2-2.3
	c0-1.2-1-2.2-2.2-2.2C147.3,51.1,146.3,52.1,146.3,53.4z M136.8,53.4c0,1.2,1,2.2,2.2,2.2c1.2,0,2.2-1,2.2-2.2c0-1.2-1-2.2-2.2-2.2
	C137.7,51.2,136.8,52.2,136.8,53.4z M127.2,53.4c0,1.2,0.9,2.1,2.1,2.1c1.2,0,2.1-0.9,2.1-2.1c0-1.2-1-2.1-2.1-2.1
	C128.2,51.2,127.2,52.2,127.2,53.4z M117.7,53.4c0,1.2,0.9,2.1,2.1,2.1c1.2,0,2.1-0.9,2.1-2.1c0-1.2-0.9-2.1-2.1-2.1
	C118.6,51.3,117.7,52.2,117.7,53.4z M108.1,53.4c0,1.2,0.9,2.1,2,2.1c1.1,0,2-0.9,2-2.1c0-1.1-0.9-2-2-2
	C109.1,51.3,108.1,52.2,108.1,53.4z M98.6,53.4c0,1.1,0.9,2,2,2c1.1,0,2-0.9,2-2c0-1.1-0.9-2-2-2C99.5,51.4,98.6,52.3,98.6,53.4z
	 M89.1,53.4c0,1.1,0.9,1.9,1.9,1.9c1.1,0,1.9-0.8,1.9-1.9c0-1.1-0.9-1.9-1.9-1.9C89.9,51.4,89.1,52.3,89.1,53.4z M79.5,53.4
	c0,1,0.8,1.9,1.9,1.9c1,0,1.9-0.8,1.9-1.9c0-1-0.8-1.9-1.9-1.9C80.4,51.5,79.5,52.3,79.5,53.4z M70,53.4c0,1,0.8,1.9,1.8,1.9
	c1,0,1.8-0.8,1.8-1.9c0-1-0.8-1.9-1.8-1.9C70.8,51.5,70,52.4,70,53.4z M60.5,53.4c0,1,0.8,1.8,1.8,1.8c1,0,1.8-0.8,1.8-1.8
	c0-1-0.8-1.8-1.8-1.8C61.3,51.6,60.5,52.4,60.5,53.4z M50.9,53.4c0,1,0.8,1.7,1.7,1.7c1,0,1.7-0.8,1.7-1.7c0-1-0.8-1.7-1.7-1.7
	C51.7,51.6,50.9,52.4,50.9,53.4z M41.4,53.4c0,0.9,0.8,1.7,1.7,1.7c0.9,0,1.7-0.8,1.7-1.7c0-0.9-0.7-1.7-1.7-1.7
	C42.1,51.7,41.4,52.4,41.4,53.4z M31.9,53.4c0,0.9,0.7,1.7,1.6,1.7c0.9,0,1.6-0.8,1.6-1.7c0-0.9-0.7-1.7-1.6-1.7
	C32.6,51.7,31.9,52.5,31.9,53.4z M22.3,53.4c0,0.9,0.7,1.6,1.6,1.6c0.9,0,1.6-0.7,1.6-1.6c0-0.9-0.7-1.6-1.6-1.6
	C23,51.8,22.3,52.5,22.3,53.4z M12.8,53.4c0,0.8,0.7,1.6,1.5,1.6c0.8,0,1.5-0.7,1.5-1.6c0-0.8-0.7-1.5-1.5-1.5
	C13.5,51.8,12.8,52.5,12.8,53.4z M3.2,53.4c0,0.8,0.7,1.5,1.5,1.5c0.8,0,1.5-0.7,1.5-1.5c0-0.8-0.7-1.5-1.5-1.5
	C3.9,51.9,3.2,52.6,3.2,53.4z M184.3,63.1c0,1.4,1.2,2.6,2.6,2.6c1.4,0,2.6-1.2,2.6-2.6c0-1.5-1.2-2.6-2.6-2.6
	C185.4,60.5,184.3,61.6,184.3,63.1z M174.8,63.1c0,1.4,1.1,2.5,2.5,2.5c1.4,0,2.5-1.2,2.5-2.5c0-1.4-1.1-2.6-2.5-2.6
	C175.9,60.5,174.8,61.7,174.8,63.1z M165.2,63.1c0,1.4,1.1,2.5,2.5,2.5c1.4,0,2.5-1.1,2.5-2.5c0-1.4-1.1-2.5-2.5-2.5
	C166.4,60.6,165.2,61.7,165.2,63.1z M155.7,63c0,1.4,1.1,2.4,2.4,2.4c1.3,0,2.4-1.1,2.4-2.4c0-1.3-1.1-2.4-2.4-2.4
	C156.8,60.7,155.7,61.7,155.7,63z M146.2,63c0,1.3,1.1,2.4,2.3,2.4c1.3,0,2.4-1.1,2.4-2.4c0-1.3-1.1-2.3-2.4-2.3
	C147.2,60.7,146.2,61.8,146.2,63z M136.6,63c0,1.3,1,2.3,2.3,2.3c1.3,0,2.3-1,2.3-2.3c0-1.3-1-2.3-2.3-2.3
	C137.7,60.8,136.6,61.8,136.6,63z M127.1,63c0,1.3,1,2.3,2.2,2.3c1.2,0,2.2-1,2.2-2.3c0-1.2-1-2.2-2.2-2.2
	C128.1,60.8,127.1,61.8,127.1,63z M117.6,63c0,1.2,1,2.2,2.2,2.2c1.2,0,2.2-1,2.2-2.2c0-1.2-1-2.2-2.2-2.2
	C118.6,60.9,117.6,61.8,117.6,63z M108.1,63c0,1.2,1,2.2,2.1,2.2c1.2,0,2.1-1,2.1-2.2c0-1.2-1-2.1-2.1-2.1
	C109,60.9,108.1,61.9,108.1,63z M98.5,63c0,1.2,0.9,2.1,2.1,2.1c1.1,0,2.1-1,2.1-2.1c0-1.1-0.9-2.1-2.1-2.1
	C99.5,61,98.5,61.9,98.5,63z M89,63c0,1.1,0.9,2.1,2,2.1c1.1,0,2-0.9,2-2.1c0-1.1-0.9-2-2-2C89.9,61,89,61.9,89,63z M79.5,63
	c0,1.1,0.9,2,2,2c1.1,0,2-0.8,2-2c0-1.1-0.9-1.9-2-1.9C80.3,61.1,79.5,62,79.5,63z M69.9,63c0,1.1,0.8,1.9,1.9,1.9
	c1.1,0,1.9-0.8,1.9-1.9c0-1-0.8-1.9-1.9-1.9C70.8,61.2,69.9,62,69.9,63z M60.4,63c0,1,0.8,1.9,1.8,1.9c1,0,1.8-0.8,1.8-1.9
	c0-1-0.8-1.8-1.8-1.8C61.2,61.2,60.4,62,60.4,63z M50.9,63c0,1,0.8,1.8,1.8,1.8c1,0,1.8-0.8,1.8-1.8c0-1-0.8-1.8-1.8-1.8
	C51.7,61.3,50.9,62.1,50.9,63z M41.3,63c0,1,0.8,1.7,1.7,1.7c0.9,0,1.7-0.8,1.7-1.7c0-1-0.8-1.7-1.7-1.7
	C42.1,61.3,41.3,62.1,41.3,63z M31.8,63c0,1,0.7,1.7,1.7,1.7c0.9,0,1.7-0.7,1.7-1.7c0-0.9-0.7-1.7-1.7-1.7
	C32.6,61.4,31.8,62.1,31.8,63z M22.3,63c0,0.9,0.7,1.6,1.6,1.6c0.9,0,1.6-0.7,1.6-1.6c0-0.9-0.7-1.6-1.6-1.6
	C23,61.4,22.3,62.2,22.3,63z M12.8,63c0,0.9,0.7,1.6,1.5,1.6c0.8,0,1.5-0.7,1.5-1.6c0-0.8-0.7-1.5-1.5-1.5
	C13.4,61.5,12.8,62.2,12.8,63z M3.2,63c0,0.8,0.7,1.5,1.5,1.5c0.8,0,1.5-0.7,1.5-1.5c0-0.8-0.7-1.5-1.5-1.5
	C3.9,61.6,3.2,62.2,3.2,63z M184.1,72.7c0,1.5,1.2,2.8,2.7,2.8c1.5,0,2.7-1.3,2.7-2.8c0-1.5-1.2-2.8-2.7-2.8
	C185.4,70,184.1,71.2,184.1,72.7z M174.6,72.7c0,1.5,1.2,2.7,2.7,2.7c1.5,0,2.7-1.2,2.7-2.7c0-1.5-1.2-2.7-2.7-2.7
	C175.8,70,174.6,71.3,174.6,72.7z M165.1,72.7c0,1.5,1.2,2.6,2.6,2.6c1.4,0,2.6-1.2,2.6-2.6c0-1.5-1.2-2.6-2.6-2.6
	C166.3,70.1,165.1,71.3,165.1,72.7z M155.6,72.7c0,1.4,1.1,2.6,2.5,2.6c1.4,0,2.6-1.2,2.6-2.6c0-1.4-1.2-2.6-2.6-2.6
	C156.7,70.2,155.6,71.3,155.6,72.7z M146.1,72.7c0,1.4,1.1,2.5,2.5,2.5c1.4,0,2.5-1.1,2.5-2.5c0-1.4-1.1-2.5-2.5-2.5
	C147.2,70.2,146.1,71.4,146.1,72.7z M136.5,72.7c0,1.4,1.1,2.4,2.4,2.4c1.3,0,2.4-1.1,2.4-2.4c0-1.3-1.1-2.4-2.4-2.4
	C137.6,70.3,136.5,71.4,136.5,72.7z M127,72.7c0,1.3,1,2.4,2.3,2.4c1.3,0,2.4-1,2.4-2.4c0-1.3-1.1-2.4-2.4-2.4
	C128.1,70.4,127,71.5,127,72.7z M117.5,72.7c0,1.3,1,2.3,2.3,2.3c1.3,0,2.3-1,2.3-2.3c0-1.3-1-2.3-2.3-2.3
	C118.5,70.4,117.5,71.5,117.5,72.7z M107.9,72.7c0,1.2,1,2.3,2.2,2.3c1.2,0,2.2-1,2.2-2.3c0-1.2-1-2.2-2.2-2.2
	C109,70.5,107.9,71.5,107.9,72.7z M98.4,72.7c0,1.2,1,2.2,2.1,2.2c1.2,0,2.2-1,2.2-2.2c0-1.2-1-2.2-2.2-2.2
	C99.4,70.6,98.4,71.6,98.4,72.7z M88.9,72.7c0,1.2,0.9,2.1,2.1,2.1c1.2,0,2.1-1,2.1-2.1c0-1.2-0.9-2.1-2.1-2.1
	C89.9,70.7,88.9,71.6,88.9,72.7z M79.4,72.7c0,1.2,0.9,2.1,2,2.1c1.1,0,2-0.9,2-2.1c0-1.1-0.9-2-2-2C80.3,70.7,79.4,71.6,79.4,72.7z
	 M69.9,72.7c0,1.1,0.9,2,2,2c1.1,0,2-0.9,2-2c0-1.1-0.9-2-2-2C70.7,70.8,69.9,71.7,69.9,72.7z M60.3,72.7c0,1,0.9,1.9,1.9,1.9
	c1.1,0,1.9-0.9,1.9-1.9c0-1.1-0.8-1.9-1.9-1.9C61.2,70.8,60.3,71.7,60.3,72.7z M50.8,72.7c0,1,0.8,1.9,1.8,1.9c1,0,1.8-0.8,1.8-1.9
	c0-1-0.8-1.9-1.8-1.9C51.6,70.9,50.8,71.7,50.8,72.7z M41.3,72.7c0,1,0.8,1.8,1.8,1.8c1,0,1.8-0.8,1.8-1.8c0-1-0.8-1.8-1.8-1.8
	C42.1,71,41.3,71.8,41.3,72.7z M31.8,72.7c0,1,0.8,1.7,1.7,1.7c0.9,0,1.7-0.8,1.7-1.7c0-1-0.8-1.7-1.7-1.7
	C32.5,71,31.8,71.8,31.8,72.7z M22.3,72.7c0,0.9,0.7,1.7,1.6,1.7c0.9,0,1.6-0.8,1.6-1.7c0-0.9-0.7-1.7-1.6-1.7
	C23,71.1,22.3,71.8,22.3,72.7z M12.7,72.7c0,0.9,0.7,1.6,1.6,1.6c0.9,0,1.6-0.7,1.6-1.6c0-0.9-0.7-1.6-1.6-1.6
	C13.4,71.2,12.7,71.9,12.7,72.7z M3.2,72.7c0,0.8,0.7,1.5,1.5,1.5c0.8,0,1.5-0.7,1.5-1.5c0-0.8-0.7-1.5-1.5-1.5
	C3.9,71.2,3.2,71.9,3.2,72.7z M184,82.4c0,1.6,1.3,2.9,2.9,2.9c1.6,0,2.9-1.3,2.9-2.9c0-1.6-1.3-3-2.9-3
	C185.3,79.5,184,80.8,184,82.4z M174.5,82.4c0,1.6,1.3,2.8,2.8,2.8c1.6,0,2.8-1.3,2.8-2.8c0-1.6-1.3-2.9-2.8-2.9
	C175.7,79.6,174.5,80.8,174.5,82.4z M164.9,82.4c0,1.5,1.2,2.8,2.8,2.8c1.5,0,2.8-1.2,2.8-2.8c0-1.5-1.2-2.8-2.8-2.8
	C166.2,79.7,164.9,80.9,164.9,82.4z M155.4,82.4c0,1.5,1.2,2.7,2.7,2.7c1.5,0,2.7-1.2,2.7-2.7c0-1.5-1.2-2.7-2.7-2.7
	C156.6,79.7,155.4,80.9,155.4,82.4z M145.9,82.4c0,1.4,1.2,2.6,2.6,2.6c1.4,0,2.6-1.2,2.6-2.6c0-1.5-1.2-2.6-2.6-2.6
	C147.1,79.8,145.9,81,145.9,82.4z M136.4,82.4c0,1.4,1.1,2.6,2.5,2.6c1.4,0,2.5-1.2,2.5-2.6c0-1.4-1.1-2.6-2.5-2.6
	C137.5,79.9,136.4,81,136.4,82.4z M126.9,82.4c0,1.3,1.1,2.5,2.5,2.5c1.4,0,2.5-1.1,2.5-2.5c0-1.4-1.1-2.5-2.5-2.5
	C128,79.9,126.9,81.1,126.9,82.4z M117.4,82.4c0,1.3,1.1,2.4,2.4,2.4c1.3,0,2.4-1.1,2.4-2.4c0-1.3-1.1-2.4-2.4-2.4
	C118.4,80,117.4,81.1,117.4,82.4z M107.9,82.4c0,1.3,1,2.4,2.3,2.4c1.3,0,2.3-1,2.3-2.4c0-1.3-1-2.3-2.3-2.3
	C108.9,80.1,107.9,81.2,107.9,82.4z M98.3,82.4c0,1.3,1,2.3,2.2,2.3c1.2,0,2.2-1,2.2-2.3c0-1.2-1-2.2-2.2-2.2
	C99.3,80.2,98.3,81.2,98.3,82.4z M88.8,82.4c0,1.2,1,2.2,2.2,2.2c1.2,0,2.2-1,2.2-2.2c0-1.2-1-2.2-2.2-2.2
	C89.8,80.3,88.8,81.2,88.8,82.4z M79.3,82.4c0,1.2,0.9,2.1,2.1,2.1c1.2,0,2.1-0.9,2.1-2.1c0-1.2-0.9-2.1-2.1-2.1
	C80.2,80.3,79.3,81.3,79.3,82.4z M69.8,82.4c0,1.2,0.9,2.1,2,2.1c1.1,0,2-0.9,2-2.1c0-1.1-0.9-2-2-2C70.7,80.4,69.8,81.3,69.8,82.4z
	 M60.3,82.4c0,1.1,0.9,2,2,2c1.1,0,2-0.9,2-2c0-1.1-0.9-1.9-2-1.9C61.2,80.5,60.3,81.4,60.3,82.4z M50.8,82.4c0,1.1,0.8,1.9,1.9,1.9
	c1,0,1.9-0.8,1.9-1.9c0-1-0.8-1.9-1.9-1.9C51.6,80.6,50.8,81.4,50.8,82.4z M41.3,82.4c0,1,0.8,1.8,1.8,1.8c1,0,1.8-0.8,1.8-1.8
	c0-1-0.8-1.8-1.8-1.8C42.1,80.6,41.3,81.4,41.3,82.4z M31.7,82.4c0,1,0.8,1.8,1.7,1.8c1,0,1.7-0.8,1.7-1.8c0-1-0.8-1.7-1.7-1.7
	C32.5,80.7,31.7,81.5,31.7,82.4z M22.2,82.4c0,1,0.7,1.7,1.7,1.7c0.9,0,1.7-0.7,1.7-1.7c0-0.9-0.8-1.7-1.7-1.7
	C23,80.8,22.2,81.5,22.2,82.4z M12.7,82.4c0,0.9,0.7,1.6,1.6,1.6c0.9,0,1.6-0.7,1.6-1.6c0-0.8-0.7-1.6-1.6-1.6
	C13.4,80.8,12.7,81.6,12.7,82.4z M3.2,82.4c0,0.8,0.7,1.5,1.5,1.5c0.8,0,1.5-0.7,1.5-1.5c0-0.8-0.7-1.5-1.5-1.5
	C3.9,80.9,3.2,81.6,3.2,82.4z M183.8,92.2c0,1.7,1.4,3.1,3.1,3.1c1.7,0,3.1-1.4,3.1-3.1c0-1.7-1.4-3.1-3.1-3.1
	C185.2,89,183.8,90.4,183.8,92.2z M174.3,92.2c0,1.6,1.3,3,3,3c1.7,0,3-1.3,3-3c0-1.7-1.3-3-3-3C175.6,89.1,174.3,90.5,174.3,92.2z
	 M164.8,92.2c0,1.6,1.3,2.9,2.9,2.9c1.6,0,2.9-1.3,2.9-2.9c0-1.6-1.3-3-2.9-3C166.1,89.2,164.8,90.5,164.8,92.2z M155.3,92.2
	c0,1.5,1.3,2.8,2.8,2.8c1.6,0,2.8-1.3,2.8-2.8c0-1.6-1.3-2.9-2.8-2.9C156.6,89.3,155.3,90.6,155.3,92.2z M145.8,92.1
	c0,1.5,1.2,2.8,2.7,2.8c1.5,0,2.8-1.3,2.8-2.8c0-1.5-1.2-2.8-2.8-2.8C147,89.4,145.8,90.6,145.8,92.1z M136.3,92.1
	c0,1.5,1.2,2.7,2.7,2.7c1.5,0,2.7-1.2,2.7-2.7c0-1.5-1.2-2.7-2.7-2.7C137.5,89.5,136.3,90.6,136.3,92.1z M126.8,92.1
	c0,1.5,1.2,2.6,2.6,2.6c1.4,0,2.6-1.2,2.6-2.6c0-1.4-1.2-2.6-2.6-2.6C127.9,89.5,126.8,90.7,126.8,92.1z M117.3,92.1
	c0,1.4,1.1,2.5,2.5,2.5c1.4,0,2.5-1.1,2.5-2.5c0-1.4-1.1-2.5-2.5-2.5C118.4,89.6,117.3,90.7,117.3,92.1z M107.8,92.1
	c0,1.3,1.1,2.4,2.4,2.4c1.4,0,2.4-1.1,2.4-2.4c0-1.4-1.1-2.4-2.4-2.4C108.8,89.7,107.8,90.8,107.8,92.1z M98.2,92.1
	c0,1.3,1.1,2.4,2.3,2.4c1.3,0,2.3-1.1,2.3-2.4c0-1.3-1.1-2.4-2.3-2.4C99.3,89.8,98.2,90.8,98.2,92.1z M88.7,92.1
	c0,1.3,1,2.3,2.3,2.3c1.3,0,2.2-1,2.2-2.3c0-1.2-1-2.3-2.2-2.3C89.8,89.8,88.7,90.9,88.7,92.1z M79.2,92.1c0,1.2,1,2.2,2.2,2.2
	c1.2,0,2.2-1,2.2-2.2c0-1.2-1-2.2-2.2-2.2C80.2,89.9,79.2,90.9,79.2,92.1z M69.7,92.1c0,1.2,0.9,2.1,2.1,2.1c1.2,0,2.1-1,2.1-2.1
	c0-1.2-0.9-2.1-2.1-2.1C70.7,90,69.7,91,69.7,92.1z M60.2,92.1c0,1.1,0.9,2.1,2,2.1c1.1,0,2-0.9,2-2.1c0-1.1-0.9-2-2-2
	C61.1,90.1,60.2,91,60.2,92.1z M50.7,92.1c0,1.1,0.9,1.9,1.9,1.9c1.1,0,1.9-0.8,1.9-1.9c0-1.1-0.9-1.9-1.9-1.9
	C51.6,90.2,50.7,91.1,50.7,92.1z M41.2,92.1c0,1,0.8,1.9,1.9,1.9c1,0,1.8-0.8,1.8-1.9c0-1-0.8-1.9-1.8-1.9
	C42,90.3,41.2,91.1,41.2,92.1z M31.7,92.1c0,1,0.8,1.8,1.8,1.8c1,0,1.8-0.8,1.8-1.8c0-1-0.8-1.8-1.8-1.8
	C32.5,90.4,31.7,91.2,31.7,92.1z M22.2,92.1c0,0.9,0.8,1.7,1.7,1.7c0.9,0,1.7-0.8,1.7-1.7c0-0.9-0.7-1.7-1.7-1.7
	C23,90.4,22.2,91.2,22.2,92.1z M12.7,92.1c0,0.9,0.7,1.6,1.6,1.6c0.9,0,1.6-0.7,1.6-1.6c0-0.9-0.7-1.6-1.6-1.6
	C13.4,90.5,12.7,91.3,12.7,92.1z M3.2,92.1c0,0.8,0.7,1.5,1.5,1.5c0.8,0,1.5-0.7,1.5-1.5c0-0.8-0.7-1.5-1.5-1.5
	C3.9,90.6,3.2,91.3,3.2,92.1z"/>
</svg>
